Nobile-Medium.ufo
<glyph name="exclam" format="1">
  <advance width="538"/>
  <unicode hex="0021"/>
  <outline>
    <contour>
      <point x="286" y="-4" type="curve" smooth="yes"/>
      <point x="358" y="-4"/>
      <point x="409" y="54"/>
      <point x="409" y="123" type="curve" smooth="yes"/>
      <point x="409" y="193"/>
      <point x="358" y="250"/>
      <point x="286" y="250" type="curve" smooth="yes"/>
      <point x="213" y="250"/>
      <point x="160" y="193"/>
      <point x="160" y="123" type="curve" smooth="yes"/>
      <point x="160" y="54"/>
      <point x="215" y="-4"/>
    </contour>
    <contour>
      <point x="227" y="421" type="line"/>
      <point x="335" y="421" type="line"/>
      <point x="389" y="1484" type="line"/>
      <point x="172" y="1484" type="line"/>
    </contour>
  </outline>
</glyph>
<glyph name="quotedbl" format="1">
  <advance width="680"/>
  <unicode hex="0022"/>
  <outline>
    <contour>
      <point x="119" y="953" type="line"/>
      <point x="238" y="953" type="line"/>
      <point x="274" y="1415" type="line"/>
      <point x="275" y="1430"/>
      <point x="274" y="1471"/>
      <point x="274" y="1487" type="curve"/>
      <point x="72" y="1487" type="line"/>
      <point x="72" y="1471"/>
      <point x="71" y="1430"/>
      <point x="72" y="1415" type="curve"/>
    </contour>
    <contour>
      <point x="453" y="953" type="line"/>
      <point x="572" y="953" type="line"/>
      <point x="619" y="1415" type="line"/>
      <point x="620" y="1430"/>
      <point x="619" y="1471"/>
      <point x="619" y="1487" type="curve"/>
      <point x="424" y="1487" type="line"/>
      <point x="424" y="1471"/>
      <point x="423" y="1430"/>
      <point x="424" y="1415" type="curve"/>
    </contour>
  </outline>
</glyph>
<glyph name="numbersign" format="1">
  <advance width="1299"/>
  <unicode hex="0023"/>
  <outline>
    <contour>
      <point x="169" y="0" type="line"/>
      <point x="309" y="0" type="line"/>
      <point x="602" y="1486" type="line"/>
      <point x="445" y="1486" type="line"/>
    </contour>
    <contour>
      <point x="101" y="496" type="line"/>
      <point x="1179" y="496" type="line"/>
      <point x="1179" y="594" type="line"/>
      <point x="101" y="594" type="line"/>
    </contour>
    <contour>
      <point x="130" y="872" type="line"/>
      <point x="1207" y="872" type="line"/>
      <point x="1207" y="970" type="line"/>
      <point x="130" y="970" type="line"/>
    </contour>
    <contour>
      <point x="704" y="0" type="line"/>
      <point x="844" y="0" type="line"/>
      <point x="1137" y="1486" type="line"/>
      <point x="979" y="1486" type="line"/>
    </contour>
  </outline>
</glyph>
<glyph name="ampersand" format="1">
  <advance width="1597"/>
  <unicode hex="0026"/>
  <outline>
    <contour>
      <point x="735" y="816" type="line"/>
      <point x="925" y="889"/>
      <point x="1089" y="966"/>
      <point x="1089" y="1181" type="curve" smooth="yes"/>
      <point x="1090" y="1403"/>
      <point x="895" y="1506"/>
      <point x="667" y="1506" type="curve" smooth="yes"/>
      <point x="413" y="1506"/>
      <point x="246" y="1398"/>
      <point x="246" y="1173" type="curve" smooth="yes"/>
      <point x="246" y="1042"/>
      <point x="338" y="939"/>
      <point x="464" y="855" type="curve"/>
      <point x="260" y="771"/>
      <point x="122" y="635"/>
      <point x="122" y="403" type="curve" smooth="yes"/>
      <point x="122" y="79"/>
      <point x="382" y="-17"/>
      <point x="699" y="-17" type="curve" smooth="yes"/>
      <point x="969" y="-17"/>
      <point x="1168" y="43"/>
      <point x="1263" y="200" type="curve"/>
      <point x="1508" y="1" type="line"/>
      <point x="1595" y="124" type="line"/>
      <point x="1343" y="324" type="line"/>
      <point x="1390" y="441"/>
      <point x="1419" y="648"/>
      <point x="1419" y="831" type="curve"/>
      <point x="1250" y="833" type="line"/>
      <point x="1250" y="694"/>
      <point x="1247" y="544"/>
      <point x="1209" y="427" type="curve"/>
    </contour>
    <contour>
      <point x="710" y="142" type="curve" smooth="yes"/>
      <point x="483" y="142"/>
      <point x="337" y="207"/>
      <point x="337" y="426" type="curve" smooth="yes"/>
      <point x="337" y="583"/>
      <point x="426" y="697"/>
      <point x="582" y="754" type="curve"/>
      <point x="1137" y="294" type="line"/>
      <point x="1049" y="168"/>
      <point x="909" y="142"/>
    </contour>
    <contour>
      <point x="617" y="922" type="curve"/>
      <point x="515" y="981"/>
      <point x="443" y="1072"/>
      <point x="443" y="1169" type="curve" smooth="yes"/>
      <point x="443" y="1311"/>
      <point x="538" y="1358"/>
      <point x="669" y="1358" type="curve" smooth="yes"/>
      <point x="794" y="1358"/>
      <point x="904" y="1306"/>
      <point x="903" y="1170" type="curve" smooth="yes"/>
      <point x="902" y="1014"/>
      <point x="747" y="965"/>
    </contour>
  </outline>
</glyph>
<glyph name="quotesingle" format="1">
  <advance width="612"/>
  <unicode hex="0027"/>
  <outline>
    <contour>
      <point x="242" y="953" type="line"/>
      <point x="361" y="953" type="line"/>
      <point x="408" y="1415" type="line"/>
      <point x="410" y="1430"/>
      <point x="408" y="1471"/>
      <point x="408" y="1487" type="curve"/>
      <point x="195" y="1487" type="line"/>
      <point x="195" y="1471"/>
      <point x="194" y="1430"/>
      <point x="195" y="1415" type="curve"/>
    </contour>
  </outline>
</glyph>
<glyph name="parenleft" format="1">
  <advance width="816"/>
  <unicode hex="0028"/>
  <outline>
    <contour>
      <point x="587" y="-198" type="curve"/>
      <point x="683" y="-84" type="line"/>
      <point x="506" y="86"/>
      <point x="418" y="387"/>
      <point x="418" y="702" type="curve" smooth="yes"/>
      <point x="418" y="1008"/>
      <point x="510" y="1329"/>
      <point x="696" y="1518" type="curve"/>
      <point x="579" y="1627" type="line"/>
      <point x="322" y="1419"/>
      <point x="194" y="1063"/>
      <point x="194" y="705" type="curve" smooth="yes"/>
      <point x="194" y="355"/>
      <point x="325" y="2"/>
    </contour>
  </outline>
</glyph>
<glyph name="parenright" format="1">
  <advance width="816"/>
  <unicode hex="0029"/>
  <outline>
    <contour>
      <point x="240" y="-198" type="line"/>
      <point x="503" y="2"/>
      <point x="632" y="355"/>
      <point x="632" y="705" type="curve" smooth="yes"/>
      <point x="632" y="1063"/>
      <point x="505" y="1419"/>
      <point x="247" y="1627" type="curve"/>
      <point x="130" y="1518" type="line"/>
      <point x="316" y="1329"/>
      <point x="408" y="1008"/>
      <point x="408" y="702" type="curve" smooth="yes"/>
      <point x="408" y="387"/>
      <point x="321" y="86"/>
      <point x="145" y="-84" type="curve"/>
    </contour>
  </outline>
</glyph>
<glyph name="plus" format="1">
  <advance width="1005"/>
  <unicode hex="002B"/>
  <outline>
    <contour>
      <point x="415" y="145" type="line"/>
      <point x="584" y="145" type="line"/>
      <point x="584" y="471" type="line"/>
      <point x="887" y="471" type="line"/>
      <point x="887" y="626" type="line"/>
      <point x="584" y="626" type="line"/>
      <point x="584" y="951" type="line"/>
      <point x="415" y="951" type="line"/>
      <point x="415" y="626" type="line"/>
      <point x="112" y="626" type="line"/>
      <point x="112" y="471" type="line"/>
      <point x="415" y="471" type="line"/>
    </contour>
  </outline>
</glyph>
<glyph name="zero" format="1">
  <advance width="1298"/>
  <unicode hex="0030"/>
  <outline>
    <contour>
      <point x="645" y="142" type="curve" smooth="yes"/>
      <point x="402" y="142"/>
      <point x="318" y="335"/>
      <point x="318" y="554" type="curve" smooth="yes"/>
      <point x="318" y="758"/>
      <point x="397" y="954"/>
      <point x="645" y="954" type="curve" smooth="yes"/>
      <point x="886" y="954"/>
      <point x="975" y="769"/>
      <point x="975" y="567" type="curve" smooth="yes"/>
      <point x="975" y="348"/>
      <point x="899" y="142"/>
    </contour>
    <contour>
      <point x="644" y="-20" type="curve" smooth="yes"/>
      <point x="993" y="-20"/>
      <point x="1185" y="227"/>
      <point x="1185" y="551" type="curve" smooth="yes"/>
      <point x="1185" y="871"/>
      <point x="998" y="1116"/>
      <point x="645" y="1116" type="curve" smooth="yes"/>
      <point x="292" y="1116"/>
      <point x="108" y="876"/>
      <point x="108" y="553" type="curve" smooth="yes"/>
      <point x="108" y="233"/>
      <point x="296" y="-20"/>
    </contour>
  </outline>
</glyph>
<glyph name="one" format="1">
  <advance width="827"/>
  <unicode hex="0031"/>
  <outline>
    <contour>
      <point x="410" y="0" type="line"/>
      <point x="626" y="0" type="line"/>
      <point x="626" y="1096" type="line"/>
      <point x="412" y="1096" type="line"/>
      <point x="142" y="962" type="line"/>
      <point x="202" y="820" type="line"/>
      <point x="410" y="919" type="line"/>
    </contour>
  </outline>
</glyph>
<glyph name="three" format="1">
  <advance width="1124"/>
  <unicode hex="0033"/>
  <outline>
    <contour>
      <point x="774" y="168" type="curve" smooth="yes"/>
      <point x="774" y="16"/>
      <point x="665" y="-43"/>
      <point x="522" y="-43" type="curve" smooth="yes"/>
      <point x="423" y="-43"/>
      <point x="304" y="-12"/>
      <point x="212" y="37" type="curve"/>
      <point x="154" y="-115" type="line"/>
      <point x="274" y="-170"/>
      <point x="408" y="-203"/>
      <point x="539" y="-203" type="curve" smooth="yes"/>
      <point x="755" y="-203"/>
      <point x="980" y="-99"/>
      <point x="980" y="149" type="curve" smooth="yes"/>
      <point x="981" y="320"/>
      <point x="877" y="455"/>
      <point x="685" y="494" type="curve"/>
      <point x="839" y="500"/>
      <point x="943" y="643"/>
      <point x="943" y="791" type="curve" smooth="yes"/>
      <point x="943" y="1030"/>
      <point x="734" y="1116"/>
      <point x="524" y="1116" type="curve" smooth="yes"/>
      <point x="408" y="1116"/>
      <point x="276" y="1081"/>
      <point x="171" y="1032" type="curve"/>
      <point x="232" y="884" type="line"/>
      <point x="319" y="928"/>
      <point x="414" y="953"/>
      <point x="506" y="953" type="curve" smooth="yes"/>
      <point x="643" y="953"/>
      <point x="751" y="911"/>
      <point x="751" y="764" type="curve" smooth="yes"/>
      <point x="751" y="611"/>
      <point x="613" y="565"/>
      <point x="467" y="565" type="curve"/>
      <point x="467" y="413" type="line"/>
      <point x="612" y="398"/>
      <point x="774" y="338"/>
    </contour>
  </outline>
</glyph>
<glyph name="four" format="1">
  <advance width="1148"/>
  <unicode hex="0034"/>
  <outline>
    <contour>
      <point x="718" y="-234" type="line"/>
      <point x="908" y="-234" type="line"/>
      <point x="908" y="62" type="line"/>
      <point x="1081" y="62" type="line"/>
      <point x="1081" y="217" type="line"/>
      <point x="908" y="217" type="line"/>
      <point x="908" y="1095" type="line"/>
      <point x="733" y="1139" type="line"/>
      <point x="98" y="205" type="line"/>
      <point x="128" y="62" type="line"/>
      <point x="718" y="62" type="line"/>
    </contour>
    <contour>
      <point x="302" y="215" type="line"/>
      <point x="718" y="841" type="line"/>
      <point x="718" y="215" type="line"/>
    </contour>
  </outline>
</glyph>
<glyph name="five" format="1">
  <advance width="1139"/>
  <unicode hex="0035"/>
  <outline>
    <contour>
      <point x="528" y="-193" type="curve" smooth="yes"/>
      <point x="796" y="-193"/>
      <point x="990" y="-37"/>
      <point x="990" y="236" type="curve" smooth="yes"/>
      <point x="990" y="478"/>
      <point x="836" y="660"/>
      <point x="580" y="660" type="curve" smooth="yes"/>
      <point x="515" y="660"/>
      <point x="414" y="644"/>
      <point x="362" y="596" type="curve"/>
      <point x="362" y="932" type="line"/>
      <point x="909" y="932" type="line"/>
      <point x="909" y="1096" type="line"/>
      <point x="192" y="1096" type="line"/>
      <point x="192" y="505" type="line"/>
      <point x="274" y="426" type="line"/>
      <point x="358" y="468"/>
      <point x="457" y="511"/>
      <point x="542" y="511" type="curve" smooth="yes"/>
      <point x="713" y="511"/>
      <point x="798" y="400"/>
      <point x="798" y="234" type="curve" smooth="yes"/>
      <point x="798" y="58"/>
      <point x="698" y="-21"/>
      <point x="523" y="-21" type="curve" smooth="yes"/>
      <point x="409" y="-21"/>
      <point x="296" y="14"/>
      <point x="204" y="57" type="curve"/>
      <point x="159" y="-104" type="line"/>
      <point x="276" y="-153"/>
      <point x="395" y="-193"/>
    </contour>
  </outline>
</glyph>
<glyph name="six" format="1">
  <advance width="1223"/>
  <unicode hex="0036"/>
  <outline>
    <contour>
      <point x="630" y="-71" type="curve" smooth="yes"/>
      <point x="911" y="-71"/>
      <point x="1099" y="113"/>
      <point x="1099" y="390" type="curve" smooth="yes"/>
      <point x="1099" y="648"/>
      <point x="927" y="825"/>
      <point x="665" y="825" type="curve" smooth="yes"/>
      <point x="550" y="825"/>
      <point x="439" y="788"/>
      <point x="367" y="705" type="curve"/>
      <point x="421" y="947"/>
      <point x="643" y="1114"/>
      <point x="882" y="1162" type="curve"/>
      <point x="833" y="1328" type="line"/>
      <point x="431" y="1232"/>
      <point x="143" y="928"/>
      <point x="143" y="478" type="curve" smooth="yes"/>
      <point x="143" y="171"/>
      <point x="296" y="-71"/>
    </contour>
    <contour>
      <point x="628" y="89" type="curve" smooth="yes"/>
      <point x="408" y="89"/>
      <point x="341" y="261"/>
      <point x="341" y="447" type="curve" smooth="yes"/>
      <point x="341" y="484"/>
      <point x="342" y="511"/>
      <point x="349" y="547" type="curve"/>
      <point x="412" y="614"/>
      <point x="515" y="672"/>
      <point x="654" y="672" type="curve" smooth="yes"/>
      <point x="820" y="672"/>
      <point x="907" y="550"/>
      <point x="907" y="391" type="curve" smooth="yes"/>
      <point x="907" y="219"/>
      <point x="805" y="89"/>
    </contour>
  </outline>
</glyph>
<glyph name="eight" format="1">
  <advance width="1220"/>
  <unicode hex="0038"/>
  <outline>
    <contour>
      <point x="609" y="-139" type="curve" smooth="yes"/>
      <point x="876" y="-139"/>
      <point x="1060" y="1"/>
      <point x="1060" y="242" type="curve" smooth="yes"/>
      <point x="1060" y="407"/>
      <point x="970" y="540"/>
      <point x="805" y="585" type="curve"/>
      <point x="950" y="628"/>
      <point x="1038" y="736"/>
      <point x="1038" y="895" type="curve" smooth="yes"/>
      <point x="1038" y="1112"/>
      <point x="870" y="1247"/>
      <point x="609" y="1247" type="curve" smooth="yes"/>
      <point x="344" y="1247"/>
      <point x="172" y="1112"/>
      <point x="172" y="895" type="curve" smooth="yes"/>
      <point x="172" y="738"/>
      <point x="260" y="628"/>
      <point x="404" y="587" type="curve"/>
      <point x="240" y="541"/>
      <point x="149" y="408"/>
      <point x="149" y="243" type="curve" smooth="yes"/>
      <point x="149" y="0"/>
      <point x="338" y="-139"/>
    </contour>
    <contour>
      <point x="609" y="22" type="curve" smooth="yes"/>
      <point x="449" y="22"/>
      <point x="353" y="107"/>
      <point x="353" y="246" type="curve" smooth="yes"/>
      <point x="353" y="409"/>
      <point x="453" y="519"/>
      <point x="609" y="519" type="curve" smooth="yes"/>
      <point x="764" y="519"/>
      <point x="856" y="404"/>
      <point x="856" y="246" type="curve" smooth="yes"/>
      <point x="856" y="107"/>
      <point x="764" y="22"/>
    </contour>
    <contour>
      <point x="609" y="661" type="curve" smooth="yes"/>
      <point x="472" y="661"/>
      <point x="373" y="751"/>
      <point x="373" y="892" type="curve" smooth="yes"/>
      <point x="373" y="1013"/>
      <point x="459" y="1091"/>
      <point x="609" y="1091" type="curve" smooth="yes"/>
      <point x="753" y="1091"/>
      <point x="837" y="1014"/>
      <point x="837" y="892" type="curve" smooth="yes"/>
      <point x="837" y="752"/>
      <point x="745" y="661"/>
    </contour>
  </outline>
</glyph>
<glyph name="nine" format="1">
  <advance width="1223"/>
  <unicode hex="0039"/>
  <outline>
    <contour>
      <point x="406" y="-285" type="line"/>
      <point x="821" y="-185"/>
      <point x="1095" y="124"/>
      <point x="1095" y="568" type="curve" smooth="yes"/>
      <point x="1095" y="859"/>
      <point x="963" y="1116"/>
      <point x="609" y="1116" type="curve" smooth="yes"/>
      <point x="329" y="1116"/>
      <point x="139" y="932"/>
      <point x="139" y="655" type="curve" smooth="yes"/>
      <point x="139" y="396"/>
      <point x="311" y="219"/>
      <point x="574" y="219" type="curve" smooth="yes"/>
      <point x="692" y="219"/>
      <point x="802" y="255"/>
      <point x="871" y="339" type="curve"/>
      <point x="818" y="99"/>
      <point x="603" y="-68"/>
      <point x="356" y="-120" type="curve"/>
    </contour>
    <contour>
      <point x="550" y="410" type="curve" smooth="yes"/>
      <point x="407" y="430"/>
      <point x="343" y="554"/>
      <point x="368" y="693" type="curve" smooth="yes"/>
      <point x="398" y="842"/>
      <point x="495" y="935"/>
      <point x="650" y="913" type="curve" smooth="yes"/>
      <point x="841" y="906"/>
      <point x="896" y="746"/>
      <point x="894" y="577" type="curve"/>
      <point x="883" y="539"/>
      <point x="868" y="505"/>
      <point x="851" y="475" type="curve" smooth="yes"/>
      <point x="778" y="414"/>
      <point x="626" y="391"/>
    </contour>
  </outline>
</glyph>
<glyph name="colon" format="1">
  <advance width="691"/>
  <unicode hex="003A"/>
  <outline>
    <contour>
      <point x="203" y="0" type="line"/>
      <point x="485" y="0" type="line"/>
      <point x="485" y="301" type="line"/>
      <point x="203" y="301" type="line"/>
    </contour>
    <contour>
      <point x="203" y="586" type="line"/>
      <point x="485" y="586" type="line"/>
      <point x="485" y="888" type="line"/>
      <point x="203" y="888" type="line"/>
    </contour>
  </outline>
</glyph>
<glyph name="semicolon" format="1">
  <advance width="689"/>
  <unicode hex="003B"/>
  <outline>
    <contour>
      <point x="251" y="-252" type="line"/>
      <point x="391" y="-210"/>
      <point x="496" y="-125"/>
      <point x="496" y="42" type="curve" smooth="yes"/>
      <point x="496" y="306" type="line"/>
      <point x="202" y="306" type="line"/>
      <point x="202" y="0" type="line"/>
      <point x="335" y="0" type="line"/>
      <point x="336" y="-91"/>
      <point x="292" y="-128"/>
      <point x="201" y="-160" type="curve"/>
    </contour>
    <contour>
      <point x="202" y="586" type="line"/>
      <point x="495" y="586" type="line"/>
      <point x="495" y="888" type="line"/>
      <point x="202" y="888" type="line"/>
    </contour>
  </outline>
</glyph>
<glyph name="greater" format="1">
  <advance width="1384"/>
  <unicode hex="003E"/>
  <outline>
    <contour>
      <point x="285" y="128" type="line"/>
      <point x="1211" y="709" type="line"/>
      <point x="285" y="1289" type="line"/>
      <point x="195" y="1157" type="line"/>
      <point x="892" y="709" type="line"/>
      <point x="195" y="259" type="line"/>
    </contour>
  </outline>
</glyph>
<glyph name="C" format="1">
  <advance width="1258"/>
  <unicode hex="0043"/>
  <outline>
    <contour>
      <point x="794" y="1487" type="move" name="top"/>
    </contour>
    <contour>
      <point x="764" y="-2" type="move" name="bot"/>
    </contour>
    <contour>
      <point x="784" y="-20" type="curve" smooth="yes"/>
      <point x="938" y="-20"/>
      <point x="1075" y="27"/>
      <point x="1195" y="96" type="curve"/>
      <point x="1127" y="246" type="line"/>
      <point x="1038" y="195"/>
      <point x="925" y="153"/>
      <point x="810" y="153" type="curve" smooth="yes"/>
      <point x="470" y="153"/>
      <point x="355" y="425"/>
      <point x="355" y="737" type="curve" smooth="yes"/>
      <point x="355" y="1055"/>
      <point x="477" y="1332"/>
      <point x="815" y="1332" type="curve" smooth="yes"/>
      <point x="930" y="1332"/>
      <point x="1040" y="1291"/>
      <point x="1110" y="1251" type="curve"/>
      <point x="1175" y="1400" type="line"/>
      <point x="1088" y="1452"/>
      <point x="960" y="1505"/>
      <point x="801" y="1505" type="curve" smooth="yes"/>
      <point x="354" y="1505"/>
      <point x="128" y="1199"/>
      <point x="128" y="742" type="curve" smooth="yes"/>
      <point x="128" y="308"/>
      <point x="328" y="-20"/>
    </contour>
  </outline>
</glyph>
<glyph name="I" format="1">
  <advance width="950"/>
  <unicode hex="0049"/>
  <outline>
    <contour>
      <point x="483" y="1485" type="move" name="top"/>
    </contour>
    <contour>
      <point x="177" y="0" type="line"/>
      <point x="767" y="0" type="line"/>
      <point x="767" y="137" type="line"/>
      <point x="580" y="137" type="line"/>
      <point x="580" y="1345" type="line"/>
      <point x="767" y="1345" type="line"/>
      <point x="767" y="1485" type="line"/>
      <point x="177" y="1485" type="line"/>
      <point x="177" y="1345" type="line"/>
      <point x="362" y="1345" type="line"/>
      <point x="362" y="137" type="line"/>
      <point x="177" y="137" type="line"/>
    </contour>
  </outline>
</glyph>
<glyph name="K" format="1">
  <advance width="1318"/>
  <unicode hex="004B"/>
  <outline>
    <contour>
      <point x="694" y="1485" type="move" name="top"/>
    </contour>
    <contour>
      <point x="687" y="0" type="move" name="bot"/>
    </contour>
    <contour>
      <point x="178" y="0" type="line"/>
      <point x="404" y="0" type="line"/>
      <point x="404" y="691" type="line"/>
      <point x="440" y="691" type="line"/>
      <point x="1034" y="0" type="line"/>
      <point x="1305" y="0" type="line"/>
      <point x="644" y="760" type="line"/>
      <point x="1262" y="1485" type="line"/>
      <point x="1015" y="1485" type="line"/>
      <point x="434" y="826" type="line"/>
      <point x="404" y="826" type="line"/>
      <point x="404" y="1485" type="line"/>
      <point x="178" y="1485" type="line"/>
    </contour>
  </outline>
</glyph>
<glyph name="N" format="1">
  <advance width="1555"/>
  <unicode hex="004E"/>
  <outline>
    <contour>
      <point x="797" y="1485" type="move" name="top"/>
    </contour>
    <contour>
      <point x="793" y="0" type="move" name="bot"/>
    </contour>
    <contour>
      <point x="178" y="0" type="line"/>
      <point x="379" y="0" type="line"/>
      <point x="379" y="1238" type="line"/>
      <point x="1103" y="0" type="line"/>
      <point x="1377" y="0" type="line"/>
      <point x="1377" y="1485" type="line"/>
      <point x="1177" y="1485" type="line"/>
      <point x="1177" y="252" type="line"/>
      <point x="456" y="1485" type="line"/>
      <point x="178" y="1485" type="line"/>
    </contour>
  </outline>
</glyph>
<glyph name="O" format="1">
  <advance width="1519"/>
  <unicode hex="004F"/>
  <outline>
    <contour>
      <point x="763" y="1487" type="move" name="top"/>
    </contour>
    <contour>
      <point x="759" y="149" type="curve" smooth="yes"/>
      <point x="426" y="149"/>
      <point x="355" y="442"/>
      <point x="355" y="740" type="curve" smooth="yes"/>
      <point x="355" y="1036"/>
      <point x="426" y="1334"/>
      <point x="759" y="1334" type="curve" smooth="yes"/>
      <point x="1092" y="1334"/>
      <point x="1164" y="1037"/>
      <point x="1164" y="740" type="curve" smooth="yes"/>
      <point x="1164" y="443"/>
      <point x="1091" y="149"/>
    </contour>
    <contour>
      <point x="759" y="-20" type="curve" smooth="yes"/>
      <point x="1213" y="-20"/>
      <point x="1391" y="308"/>
      <point x="1391" y="740" type="curve" smooth="yes"/>
      <point x="1391" y="1180"/>
      <point x="1213" y="1505"/>
      <point x="759" y="1505" type="curve" smooth="yes"/>
      <point x="312" y="1505"/>
      <point x="128" y="1166"/>
      <point x="128" y="740" type="curve" smooth="yes"/>
      <point x="128" y="308"/>
      <point x="306" y="-20"/>
    </contour>
  </outline>
</glyph>
<glyph name="U" format="1">
  <advance width="1498"/>
  <unicode hex="0055"/>
  <outline>
    <contour>
      <point x="763" y="1485" type="move" name="top"/>
    </contour>
    <contour>
      <point x="747" y="-20" type="curve" smooth="yes"/>
      <point x="1214" y="-20"/>
      <point x="1342" y="233"/>
      <point x="1342" y="681" type="curve" smooth="yes"/>
      <point x="1342" y="1485" type="line"/>
      <point x="1116" y="1485" type="line"/>
      <point x="1116" y="674" type="line" smooth="yes"/>
      <point x="1116" y="354"/>
      <point x="1078" y="144"/>
      <point x="747" y="144" type="curve" smooth="yes"/>
      <point x="420" y="144"/>
      <point x="381" y="352"/>
      <point x="381" y="674" type="curve" smooth="yes"/>
      <point x="381" y="1485" type="line"/>
      <point x="156" y="1485" type="line"/>
      <point x="156" y="681" type="line" smooth="yes"/>
      <point x="156" y="232"/>
      <point x="286" y="-20"/>
    </contour>
  </outline>
</glyph>
<glyph name="X" format="1">
  <advance width="1268"/>
  <unicode hex="0058"/>
  <outline>
    <contour>
      <point x="33" y="0" type="line"/>
      <point x="274" y="0" type="line"/>
      <point x="630" y="584" type="line"/>
      <point x="996" y="0" type="line"/>
      <point x="1229" y="0" type="line"/>
      <point x="750" y="752" type="line"/>
      <point x="1220" y="1485" type="line"/>
      <point x="995" y="1485" type="line"/>
      <point x="631" y="917" type="line"/>
      <point x="274" y="1485" type="line"/>
      <point x="42" y="1485" type="line"/>
      <point x="504" y="755" type="line"/>
    </contour>
  </outline>
</glyph>
<glyph name="Y" format="1">
  <advance width="1205"/>
  <unicode hex="0059"/>
  <outline>
    <contour>
      <point x="619" y="1479" type="move" name="top"/>
    </contour>
    <contour>
      <point x="489" y="0" type="line"/>
      <point x="710" y="0" type="line"/>
      <point x="710" y="585" type="line"/>
      <point x="1191" y="1485" type="line"/>
      <point x="971" y="1485" type="line"/>
      <point x="602" y="804" type="line"/>
      <point x="238" y="1485" type="line"/>
      <point x="14" y="1485" type="line"/>
      <point x="489" y="585" type="line"/>
    </contour>
  </outline>
</glyph>
<glyph name="underscore" format="1">
  <advance width="1095"/>
  <unicode hex="005F"/>
  <outline>
    <contour>
      <point x="98" y="-224" type="line"/>
      <point x="997" y="-224" type="line"/>
      <point x="997" y="-60" type="line"/>
      <point x="98" y="-60" type="line"/>
    </contour>
  </outline>
</glyph>
<glyph name="d" format="1">
  <advance width="1245"/>
  <unicode hex="0064"/>
  <outline>
    <contour>
      <point x="560" y="1099" type="move" name="top"/>
    </contour>
    <contour>
      <point x="989" y="1098" type="move" name="caron.alt"/>
    </contour>
    <contour>
      <point x="947" y="1301" type="move" name="mid"/>
    </contour>
    <contour>
      <point x="573" y="-20" type="curve" smooth="yes"/>
      <point x="723" y="-20"/>
      <point x="828" y="45"/>
      <point x="902" y="121" type="curve"/>
      <point x="930" y="0" type="line"/>
      <point x="1087" y="0" type="line"/>
      <point x="1087" y="1526" type="line"/>
      <point x="870" y="1487" type="line"/>
      <point x="870" y="997" type="line"/>
      <point x="787" y="1069"/>
      <point x="676" y="1116"/>
      <point x="545" y="1116" type="curve" smooth="yes"/>
      <point x="259" y="1116"/>
      <point x="106" y="881"/>
      <point x="106" y="547" type="curve" smooth="yes"/>
      <point x="106" y="240"/>
      <point x="268" y="-20"/>
    </contour>
    <contour>
      <point x="587" y="129" type="curve" smooth="yes"/>
      <point x="382" y="142"/>
      <point x="318" y="349"/>
      <point x="318" y="550" type="curve" smooth="yes"/>
      <point x="318" y="823"/>
      <point x="414" y="962"/>
      <point x="595" y="962" type="curve" smooth="yes"/>
      <point x="698" y="962"/>
      <point x="791" y="923"/>
      <point x="870" y="857" type="curve"/>
      <point x="871" y="244" type="line"/>
      <point x="801" y="172"/>
      <point x="716" y="120"/>
    </contour>
  </outline>
</glyph>
<glyph name="h" format="1">
  <advance width="1245"/>
  <unicode hex="0068"/>
  <outline>
    <contour>
      <point x="726" y="1099" type="move" name="top"/>
    </contour>
    <contour>
      <point x="158" y="0" type="line"/>
      <point x="374" y="0" type="line"/>
      <point x="374" y="809" type="line"/>
      <point x="449" y="886"/>
      <point x="549" y="957"/>
      <point x="685" y="957" type="curve" smooth="yes"/>
      <point x="845" y="957"/>
      <point x="882" y="829"/>
      <point x="882" y="686" type="curve" smooth="yes"/>
      <point x="882" y="0" type="line"/>
      <point x="1097" y="0" type="line"/>
      <point x="1097" y="690" type="line" smooth="yes"/>
      <point x="1097" y="953"/>
      <point x="981" y="1116"/>
      <point x="727" y="1116" type="curve" smooth="yes"/>
      <point x="578" y="1116"/>
      <point x="461" y="1048"/>
      <point x="374" y="970" type="curve"/>
      <point x="374" y="1528" type="line"/>
      <point x="158" y="1487" type="line"/>
    </contour>
  </outline>
</glyph>
<glyph name="j" format="1">
  <advance width="600"/>
  <unicode hex="006A"/>
  <outline>
    <contour>
      <point x="67" y="-440" type="line"/>
      <point x="307" y="-382"/>
      <point x="436" y="-282"/>
      <point x="436" y="34" type="curve" smooth="yes"/>
      <point x="436" y="1096" type="line"/>
      <point x="221" y="1096" type="line"/>
      <point x="221" y="77" type="line" smooth="yes"/>
      <point x="221" y="-163"/>
      <point x="207" y="-204"/>
      <point x="5" y="-285" type="curve"/>
    </contour>
    <contour>
      <point x="329" y="1265" type="curve" smooth="yes"/>
      <point x="402" y="1265"/>
      <point x="454" y="1322"/>
      <point x="454" y="1392" type="curve" smooth="yes"/>
      <point x="454" y="1462"/>
      <point x="402" y="1521"/>
      <point x="329" y="1521" type="curve" smooth="yes"/>
      <point x="259" y="1521"/>
      <point x="204" y="1462"/>
      <point x="204" y="1392" type="curve" smooth="yes"/>
      <point x="204" y="1323"/>
      <point x="257" y="1265"/>
    </contour>
  </outline>
</glyph>
<glyph name="k" format="1">
  <advance width="1140"/>
  <unicode hex="006B"/>
  <outline>
    <contour>
      <point x="671" y="1098" type="move" name="top"/>
    </contour>
    <contour>
      <point x="628" y="0" type="move" name="bot"/>
    </contour>
    <contour>
      <point x="160" y="0" type="line"/>
      <point x="375" y="0" type="line"/>
      <point x="375" y="440" type="line"/>
      <point x="470" y="528" type="line"/>
      <point x="892" y="0" type="line"/>
      <point x="1133" y="0" type="line"/>
      <point x="627" y="621" type="line"/>
      <point x="1093" y="1096" type="line"/>
      <point x="842" y="1096" type="line"/>
      <point x="375" y="623" type="line"/>
      <point x="375" y="1528" type="line"/>
      <point x="160" y="1487" type="line"/>
    </contour>
  </outline>
</glyph>
<glyph name="m" format="1">
  <advance width="1917"/>
  <unicode hex="006D"/>
  <outline>
    <contour>
      <point x="1010" y="1099" type="move" name="top"/>
    </contour>
    <contour>
      <point x="158" y="0" type="line"/>
      <point x="374" y="0" type="line"/>
      <point x="374" y="805" type="line"/>
      <point x="475" y="908"/>
      <point x="586" y="959"/>
      <point x="680" y="959" type="curve" smooth="yes"/>
      <point x="826" y="959"/>
      <point x="856" y="851"/>
      <point x="856" y="714" type="curve" smooth="yes"/>
      <point x="856" y="0" type="line"/>
      <point x="1074" y="0" type="line"/>
      <point x="1074" y="718" type="line" smooth="yes"/>
      <point x="1074" y="737"/>
      <point x="1074" y="770"/>
      <point x="1068" y="807" type="curve"/>
      <point x="1173" y="916"/>
      <point x="1274" y="959"/>
      <point x="1377" y="959" type="curve" smooth="yes"/>
      <point x="1522" y="959"/>
      <point x="1550" y="851"/>
      <point x="1550" y="714" type="curve" smooth="yes"/>
      <point x="1550" y="0" type="line"/>
      <point x="1767" y="0" type="line"/>
      <point x="1767" y="713" type="line" smooth="yes"/>
      <point x="1767" y="955"/>
      <point x="1645" y="1116"/>
      <point x="1427" y="1116" type="curve" smooth="yes"/>
      <point x="1296" y="1116"/>
      <point x="1153" y="1067"/>
      <point x="1035" y="930" type="curve"/>
      <point x="988" y="1035"/>
      <point x="894" y="1116"/>
      <point x="732" y="1116" type="curve" smooth="yes"/>
      <point x="601" y="1116"/>
      <point x="477" y="1066"/>
      <point x="351" y="938" type="curve"/>
      <point x="321" y="1096" type="line"/>
      <point x="158" y="1096" type="line"/>
    </contour>
  </outline>
</glyph>
<glyph name="o" format="1">
  <advance width="1237"/>
  <unicode hex="006F"/>
  <outline>
    <contour>
      <point x="621" y="1097" type="move" name="top"/>
    </contour>
    <contour>
      <point x="619" y="139" type="curve" smooth="yes"/>
      <point x="407" y="139"/>
      <point x="324" y="337"/>
      <point x="324" y="551" type="curve" smooth="yes"/>
      <point x="324" y="763"/>
      <point x="405" y="956"/>
      <point x="619" y="956" type="curve" smooth="yes"/>
      <point x="833" y="956"/>
      <point x="915" y="763"/>
      <point x="915" y="551" type="curve" smooth="yes"/>
      <point x="915" y="337"/>
      <point x="832" y="139"/>
    </contour>
    <contour>
      <point x="619" y="-20" type="curve" smooth="yes"/>
      <point x="956" y="-20"/>
      <point x="1132" y="224"/>
      <point x="1132" y="548" type="curve" smooth="yes"/>
      <point x="1132" y="871"/>
      <point x="955" y="1115"/>
      <point x="619" y="1115" type="curve" smooth="yes"/>
      <point x="282" y="1115"/>
      <point x="106" y="871"/>
      <point x="106" y="548" type="curve" smooth="yes"/>
      <point x="106" y="224"/>
      <point x="281" y="-20"/>
    </contour>
  </outline>
</glyph>
<glyph name="p" format="1">
  <advance width="1227"/>
  <unicode hex="0070"/>
  <outline>
    <contour>
      <point x="658" y="1099" type="move" name="top"/>
    </contour>
    <contour>
      <point x="148" y="-458" type="line"/>
      <point x="367" y="-429" type="line"/>
      <point x="367" y="86" type="line"/>
      <point x="436" y="26"/>
      <point x="529" y="-20"/>
      <point x="655" y="-20" type="curve" smooth="yes"/>
      <point x="961" y="-20"/>
      <point x="1122" y="242"/>
      <point x="1122" y="547" type="curve" smooth="yes"/>
      <point x="1122" y="879"/>
      <point x="969" y="1116"/>
      <point x="683" y="1116" type="curve" smooth="yes"/>
      <point x="538" y="1116"/>
      <point x="422" y="1062"/>
      <point x="338" y="978" type="curve"/>
      <point x="306" y="1096" type="line"/>
      <point x="148" y="1096" type="line"/>
    </contour>
    <contour>
      <point x="625" y="128" type="curve" smooth="yes"/>
      <point x="510" y="128"/>
      <point x="430" y="170"/>
      <point x="367" y="235" type="curve"/>
      <point x="367" y="862" type="line"/>
      <point x="442" y="923"/>
      <point x="533" y="961"/>
      <point x="633" y="961" type="curve" smooth="yes"/>
      <point x="816" y="960"/>
      <point x="910" y="819"/>
      <point x="910" y="550" type="curve" smooth="yes"/>
      <point x="910" y="299"/>
      <point x="824" y="128"/>
    </contour>
  </outline>
</glyph>
<glyph name="t" format="1">
  <advance width="834"/>
  <unicode hex="0074"/>
  <outline>
    <contour>
      <point x="310" y="1482" type="move" name="top"/>
    </contour>
    <contour>
      <point x="382" y="1404" type="move" name="caron.alt"/>
    </contour>
    <contour>
      <point x="498" y="0" type="move" name="bot"/>
    </contour>
    <contour>
      <point x="533" y="-9" type="curve" smooth="yes"/>
      <point x="616" y="-10"/>
      <point x="703" y="2"/>
      <point x="776" y="35" type="curve"/>
      <point x="749" y="179" type="line"/>
      <point x="693" y="162"/>
      <point x="643" y="151"/>
      <point x="594" y="151" type="curve" smooth="yes"/>
      <point x="475" y="151"/>
      <point x="447" y="219"/>
      <point x="447" y="295" type="curve" smooth="yes"/>
      <point x="447" y="964" type="line"/>
      <point x="756" y="964" type="line"/>
      <point x="756" y="1096" type="line"/>
      <point x="447" y="1096" type="line"/>
      <point x="447" y="1489" type="line"/>
      <point x="256" y="1440" type="line"/>
      <point x="236" y="1096" type="line"/>
      <point x="55" y="1096" type="line"/>
      <point x="55" y="964" type="line"/>
      <point x="232" y="964" type="line"/>
      <point x="232" y="300" type="line" smooth="yes"/>
      <point x="232" y="97"/>
      <point x="347" y="-5"/>
    </contour>
  </outline>
</glyph>
<glyph name="v" format="1">
  <advance width="1103"/>
  <unicode hex="0076"/>
  <outline>
    <contour>
      <point x="436" y="0" type="line"/>
      <point x="667" y="0" type="line"/>
      <point x="1052" y="1096" type="line"/>
      <point x="836" y="1096" type="line"/>
      <point x="557" y="225" type="line"/>
      <point x="273" y="1096" type="line"/>
      <point x="50" y="1096" type="line"/>
    </contour>
  </outline>
</glyph>
<glyph name="x" format="1">
  <advance width="1074"/>
  <unicode hex="0078"/>
  <outline>
    <contour>
      <point x="56" y="0" type="line"/>
      <point x="285" y="0" type="line"/>
      <point x="538" y="409" type="line"/>
      <point x="785" y="0" type="line"/>
      <point x="1012" y="0" type="line"/>
      <point x="648" y="550" type="line"/>
      <point x="1018" y="1096" type="line"/>
      <point x="788" y="1096" type="line"/>
      <point x="535" y="700" type="line"/>
      <point x="282" y="1096" type="line"/>
      <point x="50" y="1096" type="line"/>
      <point x="425" y="550" type="line"/>
    </contour>
  </outline>
</glyph>
<glyph name="y" format="1">
  <advance width="1115"/>
  <unicode hex="0079"/>
  <outline>
    <contour>
      <point x="581" y="1096" type="move" name="top"/>
    </contour>
    <contour>
      <point x="209" y="-428" type="line"/>
      <point x="488" y="-422"/>
      <point x="577" y="-269"/>
      <point x="659" y="-34" type="curve" smooth="yes"/>
      <point x="1062" y="1096" type="line"/>
      <point x="845" y="1096" type="line"/>
      <point x="581" y="260" type="line"/>
      <point x="269" y="1096" type="line"/>
      <point x="55" y="1096" type="line"/>
      <point x="480" y="27" type="line"/>
      <point x="424" y="-172"/>
      <point x="375" y="-270"/>
      <point x="157" y="-285" type="curve"/>
    </contour>
  </outline>
</glyph>
<glyph name="bar" format="1">
  <advance width="708"/>
  <unicode hex="007C"/>
  <outline>
    <contour>
      <point x="254" y="-113" type="line"/>
      <point x="454" y="-113" type="line"/>
      <point x="454" y="1589" type="line"/>
      <point x="254" y="1589" type="line"/>
    </contour>
  </outline>
</glyph>
<glyph name="braceright" format="1">
  <advance width="849"/>
  <unicode hex="007D"/>
  <outline>
    <contour>
      <point x="107" y="-176" type="line"/>
      <point x="444" y="-176"/>
      <point x="560" y="-103"/>
      <point x="560" y="279" type="curve" smooth="yes"/>
      <point x="560" y="558"/>
      <point x="598" y="598"/>
      <point x="765" y="605" type="curve"/>
      <point x="765" y="768" type="line"/>
      <point x="596" y="775"/>
      <point x="560" y="814"/>
      <point x="560" y="1094" type="curve" smooth="yes"/>
      <point x="560" y="1476"/>
      <point x="444" y="1549"/>
      <point x="107" y="1549" type="curve"/>
      <point x="107" y="1404" type="line"/>
      <point x="274" y="1399"/>
      <point x="329" y="1352"/>
      <point x="332" y="1119" type="curve" smooth="yes"/>
      <point x="336" y="798"/>
      <point x="387" y="712"/>
      <point x="573" y="686" type="curve"/>
      <point x="387" y="660"/>
      <point x="336" y="574"/>
      <point x="332" y="253" type="curve" smooth="yes"/>
      <point x="329" y="21"/>
      <point x="276" y="-27"/>
      <point x="107" y="-31" type="curve"/>
    </contour>
  </outline>
</glyph>
<glyph name="asciitilde" format="1">
  <advance width="1024"/>
  <unicode hex="007E"/>
  <outline>
    <contour>
      <point x="138" y="589" type="curve"/>
      <point x="219" y="589" type="line"/>
      <point x="219" y="672"/>
      <point x="247" y="700"/>
      <point x="295" y="700" type="curve" smooth="yes"/>
      <point x="394" y="700"/>
      <point x="573" y="583"/>
      <point x="754" y="583" type="curve" smooth="yes"/>
      <point x="883" y="583"/>
      <point x="921" y="685"/>
      <point x="921" y="841" type="curve"/>
      <point x="839" y="841" type="line"/>
      <point x="839" y="763"/>
      <point x="813" y="737"/>
      <point x="768" y="737" type="curve" smooth="yes"/>
      <point x="674" y="737"/>
      <point x="497" y="854"/>
      <point x="318" y="855" type="curve" smooth="yes"/>
      <point x="174" y="855"/>
      <point x="138" y="748"/>
    </contour>
  </outline>
</glyph>
<glyph name="cent" format="1">
  <advance width="1021"/>
  <unicode hex="00A2"/>
  <outline>
    <contour>
      <point x="558" y="-193" type="line"/>
      <point x="656" y="-193" type="line"/>
      <point x="656" y="1355" type="line"/>
      <point x="558" y="1355" type="line"/>
    </contour>
    <component base="c" yScale="0.934" yOffset="71"/>
  </outline>
</glyph>
<glyph name="sterling" format="1">
  <advance width="1102"/>
  <unicode hex="00A3"/>
  <outline>
    <contour>
      <point x="159" y="0" type="line"/>
      <point x="935" y="0" type="line"/>
      <point x="935" y="158" type="line"/>
      <point x="362" y="158" type="line"/>
      <point x="443" y="227"/>
      <point x="499" y="324"/>
      <point x="504" y="423" type="curve" smooth="yes"/>
      <point x="509" y="466"/>
      <point x="504" y="513"/>
      <point x="486" y="560" type="curve"/>
      <point x="857" y="560" type="line"/>
      <point x="857" y="663" type="line"/>
      <point x="456" y="663" type="line"/>
      <point x="406" y="736"/>
      <point x="374" y="827"/>
      <point x="374" y="894" type="curve" smooth="yes"/>
      <point x="374" y="1028"/>
      <point x="478" y="1084"/>
      <point x="608" y="1084" type="curve" smooth="yes"/>
      <point x="703" y="1084"/>
      <point x="811" y="1057"/>
      <point x="910" y="1005" type="curve"/>
      <point x="966" y="1139" type="line"/>
      <point x="859" y="1201"/>
      <point x="729" y="1247"/>
      <point x="580" y="1247" type="curve" smooth="yes"/>
      <point x="350" y="1247"/>
      <point x="181" y="1135"/>
      <point x="181" y="913" type="curve" smooth="yes"/>
      <point x="181" y="820"/>
      <point x="224" y="730"/>
      <point x="279" y="661" type="curve"/>
      <point x="118" y="661" type="line"/>
      <point x="118" y="560" type="line"/>
      <point x="320" y="560" type="line"/>
      <point x="335" y="516"/>
      <point x="339" y="472"/>
      <point x="333" y="431" type="curve" smooth="yes"/>
      <point x="327" y="328"/>
      <point x="258" y="224"/>
      <point x="159" y="152" type="curve"/>
    </contour>
  </outline>
</glyph>
<glyph name="yen" format="1">
  <advance width="1175"/>
  <unicode hex="00A5"/>
  <outline>
    <contour>
      <point x="1177" y="1486" type="line"/>
      <point x="953" y="1486" type="line"/>
      <point x="582" y="773" type="line"/>
      <point x="214" y="1486" type="line"/>
      <point x="-9" y="1486" type="line"/>
      <point x="420" y="669" type="line"/>
      <point x="185" y="669" type="line"/>
      <point x="185" y="568" type="line"/>
      <point x="461" y="568" type="line"/>
      <point x="474" y="463" type="line"/>
      <point x="185" y="463" type="line"/>
      <point x="185" y="366" type="line"/>
      <point x="474" y="366" type="line"/>
      <point x="474" y="0" type="line"/>
      <point x="694" y="0" type="line"/>
      <point x="694" y="366" type="line"/>
      <point x="978" y="366" type="line"/>
      <point x="978" y="463" type="line"/>
      <point x="694" y="463" type="line"/>
      <point x="706" y="568" type="line"/>
      <point x="978" y="568" type="line"/>
      <point x="978" y="669" type="line"/>
      <point x="741" y="669" type="line"/>
    </contour>
  </outline>
</glyph>
<glyph name="brokenbar" format="1">
  <advance width="705"/>
  <unicode hex="00A6"/>
  <outline>
    <contour>
      <point x="244" y="-44" type="line"/>
      <point x="450" y="-44" type="line"/>
      <point x="450" y="619" type="line"/>
      <point x="244" y="619" type="line"/>
    </contour>
    <contour>
      <point x="244" y="847" type="line"/>
      <point x="450" y="847" type="line"/>
      <point x="450" y="1510" type="line"/>
      <point x="244" y="1510" type="line"/>
    </contour>
  </outline>
</glyph>
<glyph name="dieresis" format="1">
  <advance width="1020"/>
  <unicode hex="00A8"/>
  <outline>
    <contour>
      <point x="520" y="1098" type="move" name="_top"/>
    </contour>
    <contour>
      <point x="275" y="1240" type="curve" smooth="yes"/>
      <point x="342" y="1240"/>
      <point x="391" y="1294"/>
      <point x="391" y="1360" type="curve" smooth="yes"/>
      <point x="391" y="1425"/>
      <point x="342" y="1479"/>
      <point x="275" y="1479" type="curve" smooth="yes"/>
      <point x="209" y="1479"/>
      <point x="158" y="1425"/>
      <point x="158" y="1360" type="curve" smooth="yes"/>
      <point x="158" y="1294"/>
      <point x="207" y="1240"/>
    </contour>
    <contour>
      <point x="743" y="1240" type="curve" smooth="yes"/>
      <point x="810" y="1240"/>
      <point x="858" y="1294"/>
      <point x="858" y="1360" type="curve" smooth="yes"/>
      <point x="858" y="1425"/>
      <point x="810" y="1479"/>
      <point x="743" y="1479" type="curve" smooth="yes"/>
      <point x="677" y="1479"/>
      <point x="626" y="1425"/>
      <point x="626" y="1360" type="curve" smooth="yes"/>
      <point x="626" y="1294"/>
      <point x="676" y="1240"/>
    </contour>
  </outline>
</glyph>
<glyph name="guillemotleft" format="1">
  <advance width="1315"/>
  <unicode hex="00AB"/>
  <outline>
    <contour>
      <point x="685" y="95" type="line"/>
      <point x="685" y="298" type="line"/>
      <point x="336" y="550" type="line"/>
      <point x="686" y="799" type="line"/>
      <point x="686" y="1000" type="line"/>
      <point x="150" y="625" type="line"/>
      <point x="150" y="470" type="line"/>
    </contour>
    <contour>
      <point x="1191" y="95" type="line"/>
      <point x="1191" y="298" type="line"/>
      <point x="842" y="550" type="line"/>
      <point x="1191" y="799" type="line"/>
      <point x="1191" y="1000" type="line"/>
      <point x="656" y="625" type="line"/>
      <point x="656" y="470" type="line"/>
    </contour>
  </outline>
</glyph>
<glyph name="logicalnot" format="1">
  <advance width="1391"/>
  <unicode hex="00AC"/>
  <outline>
    <contour>
      <point x="1021" y="421" type="line"/>
      <point x="1192" y="421" type="line"/>
      <point x="1192" y="1075" type="line"/>
      <point x="171" y="1075" type="line"/>
      <point x="171" y="906" type="line"/>
      <point x="1021" y="906" type="line"/>
    </contour>
  </outline>
</glyph>
<glyph name="acute" format="1">
  <advance width="850"/>
  <unicode hex="00B4"/>
  <outline>
    <contour>
      <point x="232" y="1098" type="move" name="_top"/>
    </contour>
    <contour>
      <point x="226" y="1286" type="line"/>
      <point x="714" y="1590" type="line"/>
      <point x="578" y="1743" type="line"/>
      <point x="171" y="1353" type="line"/>
    </contour>
  </outline>
</glyph>
<glyph name="paragraph" format="1">
  <advance width="1219"/>
  <unicode hex="00B6"/>
  <outline>
    <contour>
      <point x="540" y="-147" type="line"/>
      <point x="723" y="-147" type="line"/>
      <point x="723" y="1330" type="line"/>
      <point x="887" y="1330" type="line"/>
      <point x="887" y="-147" type="line"/>
      <point x="1069" y="-147" type="line"/>
      <point x="1069" y="1486" type="line"/>
      <point x="582" y="1486" type="line" smooth="yes"/>
      <point x="396" y="1486"/>
      <point x="118" y="1453"/>
      <point x="118" y="1154" type="curve" smooth="yes"/>
      <point x="118" y="875"/>
      <point x="349" y="803"/>
      <point x="540" y="803" type="curve"/>
    </contour>
  </outline>
</glyph>
<glyph name="cedilla" format="1">
  <advance width="676"/>
  <unicode hex="00B8"/>
  <outline>
    <contour>
      <point x="197" y="0" type="move" name="_bot"/>
    </contour>
    <contour>
      <point x="223" y="-419" type="curve" smooth="yes"/>
      <point x="350" y="-419"/>
      <point x="423" y="-341"/>
      <point x="423" y="-243" type="curve"/>
      <point x="422" y="-149"/>
      <point x="344" y="-78"/>
      <point x="230" y="-69" type="curve"/>
      <point x="243" y="1" type="line"/>
      <point x="138" y="1" type="line"/>
      <point x="126" y="-115" type="line"/>
      <point x="251" y="-123"/>
      <point x="285" y="-170"/>
      <point x="285" y="-227" type="curve" smooth="yes"/>
      <point x="285" y="-293"/>
      <point x="243" y="-318"/>
      <point x="188" y="-318" type="curve" smooth="yes"/>
      <point x="148" y="-318"/>
      <point x="99" y="-303"/>
      <point x="55" y="-279" type="curve"/>
      <point x="27" y="-357" type="line"/>
      <point x="85" y="-398"/>
      <point x="157" y="-419"/>
    </contour>
  </outline>
</glyph>
<glyph name="guillemotright" format="1">
  <advance width="1315"/>
  <unicode hex="00BB"/>
  <outline>
    <contour>
      <point x="190" y="95" type="line"/>
      <point x="726" y="470" type="line"/>
      <point x="726" y="625" type="line"/>
      <point x="189" y="1000" type="line"/>
      <point x="189" y="799" type="line"/>
      <point x="539" y="550" type="line"/>
      <point x="190" y="298" type="line"/>
    </contour>
    <contour>
      <point x="695" y="95" type="line"/>
      <point x="1232" y="470" type="line"/>
      <point x="1232" y="625" type="line"/>
      <point x="695" y="1000" type="line"/>
      <point x="695" y="799" type="line"/>
      <point x="1045" y="550" type="line"/>
      <point x="695" y="298" type="line"/>
    </contour>
  </outline>
</glyph>
<glyph name="multiply" format="1">
  <advance width="1062"/>
  <unicode hex="00D7"/>
  <outline>
    <contour>
      <point x="242" y="111" type="line"/>
      <point x="534" y="399" type="line"/>
      <point x="825" y="111" type="line"/>
      <point x="941" y="231" type="line"/>
      <point x="653" y="515" type="line"/>
      <point x="941" y="800" type="line"/>
      <point x="825" y="919" type="line"/>
      <point x="534" y="632" type="line"/>
      <point x="242" y="919" type="line"/>
      <point x="126" y="800" type="line"/>
      <point x="415" y="515" type="line"/>
      <point x="126" y="231" type="line"/>
    </contour>
  </outline>
</glyph>
<glyph name="Thorn" format="1">
  <advance width="1363"/>
  <unicode hex="00DE"/>
  <outline>
    <contour>
      <point x="175" y="0" type="line"/>
      <point x="400" y="0" type="line"/>
      <point x="400" y="345" type="line"/>
      <point x="453" y="345" type="line" smooth="yes"/>
      <point x="833" y="345"/>
      <point x="1238" y="368"/>
      <point x="1238" y="798" type="curve" smooth="yes"/>
      <point x="1238" y="1177"/>
      <point x="943" y="1227"/>
      <point x="573" y="1227" type="curve" smooth="yes"/>
      <point x="400" y="1227" type="line"/>
      <point x="400" y="1486" type="line"/>
      <point x="175" y="1486" type="line"/>
    </contour>
    <contour>
      <point x="400" y="506" type="line"/>
      <point x="400" y="1073" type="line"/>
      <point x="577" y="1073" type="line" smooth="yes"/>
      <point x="849" y="1073"/>
      <point x="1020" y="1053"/>
      <point x="1020" y="774" type="curve" smooth="yes"/>
      <point x="1020" y="521"/>
      <point x="761" y="506"/>
      <point x="543" y="506" type="curve" smooth="yes"/>
    </contour>
  </outline>
</glyph>
<glyph name="ae" format="1">
  <advance width="1698"/>
  <unicode hex="00E6"/>
  <outline>
    <contour>
      <point x="871" y="1098" type="move" name="top"/>
    </contour>
    <contour>
      <point x="417" y="-21" type="curve" smooth="yes"/>
      <point x="586" y="-21"/>
      <point x="747" y="60"/>
      <point x="837" y="195" type="curve"/>
      <point x="914" y="45"/>
      <point x="1065" y="-21"/>
      <point x="1234" y="-21" type="curve" smooth="yes"/>
      <point x="1361" y="-21"/>
      <point x="1515" y="26"/>
      <point x="1610" y="94" type="curve"/>
      <point x="1547" y="245" type="line"/>
      <point x="1462" y="178"/>
      <point x="1362" y="143"/>
      <point x="1257" y="143" type="curve" smooth="yes"/>
      <point x="1013" y="143"/>
      <point x="948" y="307"/>
      <point x="947" y="518" type="curve"/>
      <point x="1644" y="518" type="line"/>
      <point x="1649" y="550"/>
      <point x="1652" y="590"/>
      <point x="1652" y="637" type="curve" smooth="yes"/>
      <point x="1652" y="909"/>
      <point x="1517" y="1118"/>
      <point x="1230" y="1118" type="curve" smooth="yes"/>
      <point x="1074" y="1118"/>
      <point x="920" y="1046"/>
      <point x="858" y="910" type="curve"/>
      <point x="812" y="1081"/>
      <point x="667" y="1118"/>
      <point x="510" y="1118" type="curve" smooth="yes"/>
      <point x="386" y="1118"/>
      <point x="199" y="1067"/>
      <point x="109" y="1001" type="curve"/>
      <point x="172" y="863" type="line"/>
      <point x="251" y="916"/>
      <point x="400" y="961"/>
      <point x="511" y="961" type="curve" smooth="yes"/>
      <point x="725" y="961"/>
      <point x="736" y="844"/>
      <point x="736" y="671" type="curve" smooth="yes"/>
      <point x="736" y="670"/>
      <point x="736" y="632"/>
      <point x="736" y="627" type="curve"/>
      <point x="671" y="654"/>
      <point x="551" y="669"/>
      <point x="469" y="669" type="curve" smooth="yes"/>
      <point x="255" y="669"/>
      <point x="46" y="576"/>
      <point x="46" y="325" type="curve" smooth="yes"/>
      <point x="46" y="92"/>
      <point x="187" y="-21"/>
    </contour>
    <contour>
      <point x="470" y="136" type="curve" smooth="yes"/>
      <point x="331" y="136"/>
      <point x="259" y="196"/>
      <point x="259" y="342" type="curve" smooth="yes"/>
      <point x="259" y="511"/>
      <point x="382" y="545"/>
      <point x="545" y="545" type="curve" smooth="yes"/>
      <point x="607" y="545"/>
      <point x="673" y="538"/>
      <point x="736" y="528" type="curve"/>
      <point x="736" y="268" type="line"/>
      <point x="665" y="195"/>
      <point x="573" y="136"/>
    </contour>
    <contour>
      <point x="948" y="645" type="line"/>
      <point x="948" y="837"/>
      <point x="1038" y="970"/>
      <point x="1229" y="970" type="curve" smooth="yes"/>
      <point x="1399" y="970"/>
      <point x="1463" y="843"/>
      <point x="1463" y="645" type="curve"/>
    </contour>
  </outline>
</glyph>
<glyph name="oslash" format="1">
  <advance width="1213"/>
  <unicode hex="00F8"/>
  <outline>
    <contour>
      <point x="408" y="-181" type="line"/>
      <point x="467" y="-5" type="line"/>
      <point x="511" y="-16"/>
      <point x="558" y="-20"/>
      <point x="604" y="-20" type="curve" smooth="yes"/>
      <point x="945" y="-20"/>
      <point x="1114" y="220"/>
      <point x="1114" y="548" type="curve" smooth="yes"/>
      <point x="1114" y="776"/>
      <point x="1030" y="980"/>
      <point x="832" y="1076" type="curve"/>
      <point x="892" y="1254" type="line"/>
      <point x="811" y="1284" type="line"/>
      <point x="750" y="1104" type="line"/>
      <point x="703" y="1116"/>
      <point x="654" y="1122"/>
      <point x="604" y="1122" type="curve" smooth="yes"/>
      <point x="265" y="1122"/>
      <point x="96" y="874"/>
      <point x="96" y="548" type="curve" smooth="yes"/>
      <point x="96" y="320"/>
      <point x="177" y="115"/>
      <point x="380" y="23" type="curve"/>
      <point x="320" y="-152" type="line"/>
    </contour>
    <contour>
      <point x="436" y="187" type="line"/>
      <point x="331" y="269"/>
      <point x="309" y="421"/>
      <point x="309" y="548" type="curve" smooth="yes"/>
      <point x="309" y="771"/>
      <point x="379" y="967"/>
      <point x="604" y="967" type="curve" smooth="yes"/>
      <point x="637" y="967"/>
      <point x="668" y="963"/>
      <point x="698" y="954" type="curve"/>
    </contour>
    <contour>
      <point x="604" y="132" type="curve" smooth="yes"/>
      <point x="575" y="132"/>
      <point x="545" y="135"/>
      <point x="517" y="143" type="curve"/>
      <point x="776" y="909" type="line"/>
      <point x="875" y="830"/>
      <point x="901" y="683"/>
      <point x="901" y="548" type="curve" smooth="yes"/>
      <point x="901" y="325"/>
      <point x="830" y="132"/>
    </contour>
  </outline>
</glyph>
<glyph name="thorn" format="1">
  <advance width="1226"/>
  <unicode hex="00FE"/>
  <outline>
    <contour>
      <point x="137" y="-451" type="line"/>
      <point x="353" y="-427" type="line"/>
      <point x="353" y="100" type="line"/>
      <point x="431" y="10"/>
      <point x="554" y="-19"/>
      <point x="671" y="-19" type="curve" smooth="yes"/>
      <point x="972" y="-19"/>
      <point x="1118" y="251"/>
      <point x="1118" y="550" type="curve" smooth="yes"/>
      <point x="1118" y="847"/>
      <point x="986" y="1118"/>
      <point x="681" y="1118" type="curve" smooth="yes"/>
      <point x="554" y="1118"/>
      <point x="434" y="1056"/>
      <point x="351" y="963" type="curve"/>
      <point x="351" y="1477" type="line"/>
      <point x="137" y="1477" type="line"/>
    </contour>
    <contour>
      <point x="652" y="135" type="curve" smooth="yes"/>
      <point x="554" y="135"/>
      <point x="434" y="170"/>
      <point x="358" y="236" type="curve"/>
      <point x="370" y="835" type="line"/>
      <point x="446" y="909"/>
      <point x="551" y="964"/>
      <point x="654" y="964" type="curve" smooth="yes"/>
      <point x="868" y="964"/>
      <point x="905" y="714"/>
      <point x="905" y="519" type="curve" smooth="yes"/>
      <point x="905" y="332"/>
      <point x="836" y="135"/>
    </contour>
  </outline>
</glyph>
<glyph name="hbar" format="1">
  <advance width="1243"/>
  <unicode hex="0127"/>
  <outline>
    <contour>
      <point x="151" y="0" type="line"/>
      <point x="369" y="0" type="line"/>
      <point x="369" y="835" type="line"/>
      <point x="429" y="898"/>
      <point x="560" y="965"/>
      <point x="681" y="965" type="curve" smooth="yes"/>
      <point x="838" y="965"/>
      <point x="884" y="839"/>
      <point x="884" y="689" type="curve" smooth="yes"/>
      <point x="884" y="0" type="line"/>
      <point x="1102" y="0" type="line"/>
      <point x="1102" y="683" type="line" smooth="yes"/>
      <point x="1102" y="970"/>
      <point x="971" y="1122"/>
      <point x="719" y="1122" type="curve" smooth="yes"/>
      <point x="574" y="1122"/>
      <point x="459" y="1051"/>
      <point x="369" y="962" type="curve"/>
      <point x="369" y="1263" type="line"/>
      <point x="700" y="1263" type="line"/>
      <point x="700" y="1383" type="line"/>
      <point x="369" y="1383" type="line"/>
      <point x="369" y="1526" type="line"/>
      <point x="151" y="1485" type="line"/>
      <point x="151" y="1383" type="line"/>
      <point x="31" y="1383" type="line"/>
      <point x="31" y="1263" type="line"/>
      <point x="151" y="1263" type="line"/>
    </contour>
  </outline>
</glyph>
<glyph name="kgreenlandic" format="1">
  <advance width="1173"/>
  <unicode hex="0138"/>
  <outline>
    <contour>
      <point x="142" y="0" type="line"/>
      <point x="360" y="0" type="line"/>
      <point x="360" y="416" type="line"/>
      <point x="464" y="505" type="line"/>
      <point x="879" y="0" type="line"/>
      <point x="1132" y="0" type="line"/>
      <point x="599" y="609" type="line"/>
      <point x="1109" y="1098" type="line"/>
      <point x="854" y="1098" type="line"/>
      <point x="360" y="607" type="line"/>
      <point x="360" y="1098" type="line"/>
      <point x="142" y="1098" type="line"/>
    </contour>
  </outline>
</glyph>
<glyph name="Eng" format="1">
  <advance width="1554"/>
  <unicode hex="014A"/>
  <outline>
    <contour>
      <point x="1377" y="1485" type="line"/>
      <point x="1177" y="1485" type="line"/>
      <point x="1177" y="402" type="line"/>
      <point x="456" y="1485" type="line"/>
      <point x="178" y="1485" type="line"/>
      <point x="178" y="0" type="line"/>
      <point x="379" y="0" type="line"/>
      <point x="379" y="1238" type="line"/>
      <point x="1172" y="58" type="line" smooth="yes"/>
      <point x="1172" y="-184"/>
      <point x="1158" y="-264"/>
      <point x="861" y="-307" type="curve"/>
      <point x="924" y="-462" type="line"/>
      <point x="1230" y="-429"/>
      <point x="1369" y="-315"/>
      <point x="1377" y="-24" type="curve" smooth="yes"/>
    </contour>
  </outline>
</glyph>
<glyph name="eng" format="1">
  <advance width="1222"/>
  <unicode hex="014B"/>
  <outline>
    <contour>
      <point x="349" y="950" type="curve"/>
      <point x="321" y="1096" type="line"/>
      <point x="159" y="1096" type="line"/>
      <point x="159" y="0" type="line"/>
      <point x="374" y="0" type="line"/>
      <point x="374" y="811" type="line"/>
      <point x="451" y="887"/>
      <point x="551" y="956"/>
      <point x="689" y="956" type="curve" smooth="yes"/>
      <point x="849" y="956"/>
      <point x="882" y="829"/>
      <point x="882" y="683" type="curve" smooth="yes"/>
      <point x="882" y="138" type="line" smooth="yes"/>
      <point x="882" y="-103"/>
      <point x="830" y="-161"/>
      <point x="601" y="-224" type="curve"/>
      <point x="664" y="-380" type="line"/>
      <point x="929" y="-337"/>
      <point x="1098" y="-222"/>
      <point x="1098" y="95" type="curve" smooth="yes"/>
      <point x="1098" y="687" type="line" smooth="yes"/>
      <point x="1098" y="953"/>
      <point x="982" y="1116"/>
      <point x="728" y="1116" type="curve" smooth="yes"/>
      <point x="564" y="1116"/>
      <point x="439" y="1037"/>
    </contour>
  </outline>
</glyph>
<glyph name="OE" format="1">
  <advance width="2090"/>
  <unicode hex="0152"/>
  <outline>
    <contour>
      <point x="736" y="-35" type="curve" smooth="yes"/>
      <point x="925" y="-35"/>
      <point x="1064" y="35"/>
      <point x="1147" y="138" type="curve"/>
      <point x="1147" y="0" type="line"/>
      <point x="2088" y="0" type="line"/>
      <point x="2088" y="166" type="line"/>
      <point x="1372" y="166" type="line"/>
      <point x="1372" y="712" type="line"/>
      <point x="1991" y="712" type="line"/>
      <point x="1991" y="849" type="line"/>
      <point x="1372" y="849" type="line"/>
      <point x="1372" y="1322" type="line"/>
      <point x="2076" y="1322" type="line"/>
      <point x="2076" y="1487" type="line"/>
      <point x="1147" y="1487" type="line"/>
      <point x="1147" y="1353" type="line"/>
      <point x="1064" y="1451"/>
      <point x="927" y="1513"/>
      <point x="737" y="1513" type="curve" smooth="yes"/>
      <point x="283" y="1513"/>
      <point x="117" y="1165"/>
      <point x="117" y="740" type="curve" smooth="yes"/>
      <point x="117" y="309"/>
      <point x="283" y="-35"/>
    </contour>
    <contour>
      <point x="753" y="136" type="curve" smooth="yes"/>
      <point x="414" y="136"/>
      <point x="346" y="439"/>
      <point x="346" y="740" type="curve" smooth="yes"/>
      <point x="346" y="1036"/>
      <point x="409" y="1344"/>
      <point x="747" y="1344" type="curve" smooth="yes"/>
      <point x="1084" y="1344"/>
      <point x="1147" y="1038"/>
      <point x="1147" y="740" type="curve" smooth="yes"/>
      <point x="1147" y="453"/>
      <point x="1085" y="136"/>
    </contour>
  </outline>
</glyph>
<glyph name="oe" format="1">
  <advance width="1841"/>
  <unicode hex="0153"/>
  <outline>
    <contour>
      <point x="579" y="-20" type="curve" smooth="yes"/>
      <point x="764" y="-20"/>
      <point x="896" y="56"/>
      <point x="976" y="178" type="curve"/>
      <point x="1061" y="56"/>
      <point x="1199" y="-20"/>
      <point x="1389" y="-20" type="curve" smooth="yes"/>
      <point x="1507" y="-20"/>
      <point x="1650" y="22"/>
      <point x="1750" y="86" type="curve"/>
      <point x="1691" y="243" type="line"/>
      <point x="1612" y="174"/>
      <point x="1511" y="133"/>
      <point x="1404" y="133" type="curve" smooth="yes"/>
      <point x="1178" y="133"/>
      <point x="1095" y="305"/>
      <point x="1092" y="514" type="curve"/>
      <point x="1793" y="514" type="line"/>
      <point x="1797" y="544"/>
      <point x="1800" y="602"/>
      <point x="1800" y="634" type="curve" smooth="yes"/>
      <point x="1800" y="906"/>
      <point x="1665" y="1122"/>
      <point x="1374" y="1122" type="curve" smooth="yes"/>
      <point x="1191" y="1122"/>
      <point x="1060" y="1040"/>
      <point x="979" y="915" type="curve"/>
      <point x="899" y="1042"/>
      <point x="765" y="1122"/>
      <point x="578" y="1122" type="curve" smooth="yes"/>
      <point x="240" y="1122"/>
      <point x="70" y="874"/>
      <point x="70" y="548" type="curve" smooth="yes"/>
      <point x="70" y="222"/>
      <point x="239" y="-20"/>
    </contour>
    <contour>
      <point x="579" y="132" type="curve" smooth="yes"/>
      <point x="343" y="132"/>
      <point x="282" y="349"/>
      <point x="282" y="548" type="curve" smooth="yes"/>
      <point x="282" y="772"/>
      <point x="354" y="967"/>
      <point x="579" y="967" type="curve" smooth="yes"/>
      <point x="804" y="967"/>
      <point x="874" y="772"/>
      <point x="874" y="548" type="curve" smooth="yes"/>
      <point x="874" y="323"/>
      <point x="804" y="132"/>
    </contour>
    <contour>
      <point x="1092" y="640" type="curve"/>
      <point x="1105" y="800"/>
      <point x="1177" y="970"/>
      <point x="1373" y="970" type="curve" smooth="yes"/>
      <point x="1550" y="970"/>
      <point x="1617" y="838"/>
      <point x="1617" y="641" type="curve" smooth="yes"/>
      <point x="1617" y="640"/>
      <point x="1160" y="640"/>
    </contour>
  </outline>
</glyph>
<glyph name="uni02C9" format="1">
  <advance width="640"/>
  <unicode hex="02C9"/>
  <outline>
    <contour>
      <point x="326" y="1098" type="move" name="_top"/>
    </contour>
    <contour>
      <point x="325" y="1313" type="move" name="_mid"/>
    </contour>
    <contour>
      <point x="0" y="1252" type="line"/>
      <point x="640" y="1252" type="line"/>
      <point x="640" y="1373" type="line"/>
      <point x="0" y="1373" type="line"/>
    </contour>
  </outline>
</glyph>
<glyph name="breve" format="1">
  <advance width="783"/>
  <unicode hex="02D8"/>
  <outline>
    <contour>
      <point x="395" y="1098" type="move" name="_top"/>
    </contour>
    <contour>
      <point x="388" y="1238" type="curve" smooth="yes"/>
      <point x="564" y="1238"/>
      <point x="668" y="1328"/>
      <point x="671" y="1483" type="curve"/>
      <point x="537" y="1483" type="line"/>
      <point x="537" y="1410"/>
      <point x="481" y="1366"/>
      <point x="389" y="1366" type="curve" smooth="yes"/>
      <point x="297" y="1366"/>
      <point x="244" y="1410"/>
      <point x="243" y="1483" type="curve"/>
      <point x="109" y="1483" type="line"/>
      <point x="111" y="1328"/>
      <point x="215" y="1238"/>
    </contour>
  </outline>
</glyph>
<glyph name="ring" format="1">
  <advance width="828"/>
  <unicode hex="02DA"/>
  <outline>
    <contour>
      <point x="436" y="1098" type="move" name="_top"/>
    </contour>
    <contour>
      <point x="407" y="1586" type="move" name="top"/>
    </contour>
    <contour>
      <point x="437" y="1322" type="curve" smooth="yes"/>
      <point x="355" y="1322"/>
      <point x="305" y="1374"/>
      <point x="305" y="1457" type="curve" smooth="yes"/>
      <point x="305" y="1540"/>
      <point x="355" y="1591"/>
      <point x="437" y="1591" type="curve" smooth="yes"/>
      <point x="517" y="1591"/>
      <point x="567" y="1540"/>
      <point x="567" y="1457" type="curve" smooth="yes"/>
      <point x="567" y="1374"/>
      <point x="517" y="1322"/>
    </contour>
    <contour>
      <point x="437" y="1229" type="curve" smooth="yes"/>
      <point x="580" y="1229"/>
      <point x="669" y="1317"/>
      <point x="669" y="1457" type="curve" smooth="yes"/>
      <point x="669" y="1596"/>
      <point x="580" y="1685"/>
      <point x="437" y="1685" type="curve" smooth="yes"/>
      <point x="293" y="1685"/>
      <point x="203" y="1596"/>
      <point x="203" y="1457" type="curve" smooth="yes"/>
      <point x="203" y="1317"/>
      <point x="293" y="1229"/>
    </contour>
  </outline>
</glyph>
<glyph name="ogonek" format="1">
  <advance width="756"/>
  <unicode hex="02DB"/>
  <outline>
    <contour>
      <point x="461" y="-485" type="curve" smooth="yes"/>
      <point x="484" y="-485"/>
      <point x="518" y="-482"/>
      <point x="545" y="-476" type="curve"/>
      <point x="545" y="-351" type="line"/>
      <point x="524" y="-355"/>
      <point x="504" y="-357"/>
      <point x="486" y="-357" type="curve" smooth="yes"/>
      <point x="397" y="-357"/>
      <point x="350" y="-309"/>
      <point x="350" y="-239" type="curve" smooth="yes"/>
      <point x="350" y="-184"/>
      <point x="382" y="-93"/>
      <point x="499" y="0" type="curve"/>
      <point x="381" y="0" type="line"/>
      <point x="270" y="-78"/>
      <point x="215" y="-184"/>
      <point x="215" y="-276" type="curve" smooth="yes"/>
      <point x="215" y="-392"/>
      <point x="301" y="-485"/>
    </contour>
  </outline>
</glyph>
<glyph name="tilde" format="1">
  <advance width="1028"/>
  <unicode hex="02DC"/>
  <outline>
    <contour>
      <point x="518" y="1098" type="move" name="_top"/>
    </contour>
    <contour>
      <point x="180" y="1250" type="curve"/>
      <point x="252" y="1250" type="line"/>
      <point x="252" y="1314"/>
      <point x="283" y="1336"/>
      <point x="329" y="1336" type="curve" smooth="yes"/>
      <point x="420" y="1336"/>
      <point x="575" y="1250"/>
      <point x="678" y="1249" type="curve" smooth="yes"/>
      <point x="789" y="1248"/>
      <point x="844" y="1314"/>
      <point x="844" y="1479" type="curve"/>
      <point x="772" y="1479" type="line"/>
      <point x="772" y="1421"/>
      <point x="742" y="1402"/>
      <point x="697" y="1402" type="curve" smooth="yes"/>
      <point x="605" y="1403"/>
      <point x="448" y="1487"/>
      <point x="355" y="1488" type="curve" smooth="yes"/>
      <point x="240" y="1489"/>
      <point x="180" y="1427"/>
    </contour>
  </outline>
</glyph>
<glyph name="hungarumlaut" format="1">
  <advance width="966"/>
  <unicode hex="02DD"/>
  <outline>
    <contour>
      <point x="311" y="1098" type="move" name="_top"/>
    </contour>
    <contour>
      <point x="132" y="1266" type="line"/>
      <point x="554" y="1661" type="line"/>
      <point x="397" y="1784" type="line"/>
      <point x="64" y="1324" type="line"/>
    </contour>
    <contour>
      <point x="477" y="1266" type="line"/>
      <point x="949" y="1595" type="line"/>
      <point x="810" y="1741" type="line"/>
      <point x="417" y="1332" type="line"/>
    </contour>
  </outline>
</glyph>
<glyph name="uni030F" format="1">
  <advance width="973"/>
  <unicode hex="030F"/>
  <outline>
    <contour>
      <point x="693" y="1098" type="move" name="_top"/>
    </contour>
    <contour>
      <point x="527" y="1266" type="line"/>
      <point x="587" y="1332" type="line"/>
      <point x="194" y="1741" type="line"/>
      <point x="56" y="1595" type="line"/>
    </contour>
    <contour>
      <point x="872" y="1266" type="line"/>
      <point x="940" y="1324" type="line"/>
      <point x="608" y="1784" type="line"/>
      <point x="451" y="1661" type="line"/>
    </contour>
  </outline>
</glyph>
<glyph name="uni03A9" format="1">
  <advance width="1695"/>
  <unicode hex="03A9"/>
  <outline>
    <contour>
      <point x="186" y="0" type="line"/>
      <point x="763" y="0" type="line"/>
      <point x="762" y="124" type="line"/>
      <point x="540" y="263"/>
      <point x="384" y="518"/>
      <point x="384" y="813" type="curve" smooth="yes"/>
      <point x="384" y="1156"/>
      <point x="607" y="1370"/>
      <point x="931" y="1370" type="curve" smooth="yes"/>
      <point x="1284" y="1370"/>
      <point x="1466" y="1119"/>
      <point x="1466" y="808" type="curve" smooth="yes"/>
      <point x="1466" y="512"/>
      <point x="1301" y="264"/>
      <point x="1083" y="124" type="curve"/>
      <point x="1084" y="0" type="line"/>
      <point x="1656" y="0" type="line"/>
      <point x="1670" y="137" type="line"/>
      <point x="1298" y="137" type="line"/>
      <point x="1489" y="285"/>
      <point x="1666" y="522"/>
      <point x="1666" y="827" type="curve" smooth="yes"/>
      <point x="1666" y="1223"/>
      <point x="1394" y="1534"/>
      <point x="936" y="1534" type="curve" smooth="yes"/>
      <point x="494" y="1534"/>
      <point x="184" y="1253"/>
      <point x="184" y="831" type="curve" smooth="yes"/>
      <point x="184" y="532"/>
      <point x="330" y="289"/>
      <point x="544" y="137" type="curve"/>
      <point x="169" y="137" type="line"/>
    </contour>
  </outline>
</glyph>
<glyph name="pi" format="1">
  <advance width="1652"/>
  <unicode hex="03C0"/>
  <outline>
    <contour>
      <point x="1201" y="-12" type="curve" smooth="yes"/>
      <point x="1282" y="-12"/>
      <point x="1351" y="11"/>
      <point x="1397" y="53" type="curve"/>
      <point x="1397" y="180" type="line"/>
      <point x="1364" y="167"/>
      <point x="1309" y="146"/>
      <point x="1270" y="146" type="curve" smooth="yes"/>
      <point x="1176" y="146"/>
      <point x="1133" y="243"/>
      <point x="1133" y="451" type="curve" smooth="yes"/>
      <point x="1133" y="576"/>
      <point x="1148" y="725"/>
      <point x="1176" y="932" type="curve"/>
      <point x="1425" y="932" type="line"/>
      <point x="1425" y="1098" type="line"/>
      <point x="504" y="1098" type="line" smooth="yes"/>
      <point x="245" y="1098"/>
      <point x="165" y="999"/>
      <point x="165" y="768" type="curve"/>
      <point x="276" y="768" type="line"/>
      <point x="289" y="878"/>
      <point x="336" y="931"/>
      <point x="425" y="932" type="curve" smooth="yes"/>
      <point x="563" y="932" type="line"/>
      <point x="453" y="402" type="line" smooth="yes"/>
      <point x="403" y="167"/>
      <point x="291" y="121"/>
      <point x="166" y="123" type="curve"/>
      <point x="166" y="6" type="line"/>
      <point x="533" y="-12"/>
      <point x="595" y="117"/>
      <point x="625" y="347" type="curve" smooth="yes"/>
      <point x="701" y="932" type="line"/>
      <point x="1026" y="932" type="line"/>
      <point x="990" y="676"/>
      <point x="952" y="466"/>
      <point x="952" y="302" type="curve" smooth="yes"/>
      <point x="952" y="107"/>
      <point x="1007" y="-12"/>
    </contour>
  </outline>
</glyph>
<glyph name="endash" format="1">
  <advance width="847"/>
  <unicode hex="2013"/>
  <outline>
    <contour>
      <point x="170" y="527" type="line"/>
      <point x="668" y="527" type="line"/>
      <point x="668" y="691" type="line"/>
      <point x="170" y="691" type="line"/>
    </contour>
  </outline>
</glyph>
<glyph name="quotedblleft" format="1">
  <advance width="973"/>
  <unicode hex="201C"/>
  <outline>
    <contour>
      <point x="138" y="951" type="line"/>
      <point x="433" y="951" type="line"/>
      <point x="433" y="1255" type="line"/>
      <point x="300" y="1255" type="line"/>
      <point x="300" y="1348"/>
      <point x="341" y="1384"/>
      <point x="433" y="1415" type="curve"/>
      <point x="383" y="1507" type="line"/>
      <point x="241" y="1466"/>
      <point x="138" y="1378"/>
      <point x="138" y="1212" type="curve" smooth="yes"/>
    </contour>
    <contour>
      <point x="523" y="951" type="line"/>
      <point x="818" y="951" type="line"/>
      <point x="818" y="1255" type="line"/>
      <point x="684" y="1255" type="line"/>
      <point x="684" y="1348"/>
      <point x="726" y="1384"/>
      <point x="818" y="1415" type="curve"/>
      <point x="768" y="1507" type="line"/>
      <point x="626" y="1466"/>
      <point x="523" y="1378"/>
      <point x="523" y="1212" type="curve" smooth="yes"/>
    </contour>
  </outline>
</glyph>
<glyph name="quotedblbase" format="1">
  <advance width="966"/>
  <unicode hex="201E"/>
  <outline>
    <contour>
      <point x="195" y="-264" type="line"/>
      <point x="338" y="-222"/>
      <point x="441" y="-135"/>
      <point x="441" y="31" type="curve" smooth="yes"/>
      <point x="441" y="294" type="line"/>
      <point x="145" y="294" type="line"/>
      <point x="145" y="-11" type="line"/>
      <point x="279" y="-11" type="line"/>
      <point x="280" y="-104"/>
      <point x="237" y="-140"/>
      <point x="145" y="-172" type="curve"/>
    </contour>
    <contour>
      <point x="580" y="-264" type="line"/>
      <point x="722" y="-222"/>
      <point x="825" y="-135"/>
      <point x="825" y="31" type="curve" smooth="yes"/>
      <point x="825" y="294" type="line"/>
      <point x="530" y="294" type="line"/>
      <point x="530" y="-11" type="line"/>
      <point x="664" y="-11" type="line"/>
      <point x="665" y="-104"/>
      <point x="621" y="-140"/>
      <point x="530" y="-172" type="curve"/>
    </contour>
  </outline>
</glyph>
<glyph name="dagger" format="1">
  <advance width="1098"/>
  <unicode hex="2020"/>
  <outline>
    <contour>
      <point x="442" y="-186" type="line"/>
      <point x="657" y="-186" type="line"/>
      <point x="657" y="932" type="line"/>
      <point x="964" y="932" type="line"/>
      <point x="964" y="1088" type="line"/>
      <point x="657" y="1088" type="line"/>
      <point x="657" y="1486" type="line"/>
      <point x="442" y="1486" type="line"/>
      <point x="442" y="1088" type="line"/>
      <point x="133" y="1088" type="line"/>
      <point x="133" y="932" type="line"/>
      <point x="442" y="932" type="line"/>
    </contour>
  </outline>
</glyph>
<glyph name="bullet" format="1">
  <advance width="976"/>
  <unicode hex="2022"/>
  <outline>
    <contour>
      <point x="484" y="326" type="curve" smooth="yes"/>
      <point x="669" y="326"/>
      <point x="824" y="467"/>
      <point x="824" y="648" type="curve" smooth="yes"/>
      <point x="824" y="834"/>
      <point x="661" y="971"/>
      <point x="482" y="971" type="curve" smooth="yes"/>
      <point x="300" y="971"/>
      <point x="145" y="830"/>
      <point x="145" y="648" type="curve" smooth="yes"/>
      <point x="145" y="461"/>
      <point x="304" y="326"/>
    </contour>
  </outline>
</glyph>
<glyph name="perthousand" format="1">
  <advance width="2599"/>
  <unicode hex="2030"/>
  <outline>
    <contour>
      <point x="2196" y="111" type="curve" smooth="yes"/>
      <point x="2093" y="111"/>
      <point x="2027" y="211"/>
      <point x="2027" y="371" type="curve" smooth="yes"/>
      <point x="2027" y="539"/>
      <point x="2093" y="643"/>
      <point x="2196" y="643" type="curve" smooth="yes"/>
      <point x="2300" y="643"/>
      <point x="2365" y="539"/>
      <point x="2365" y="371" type="curve" smooth="yes"/>
      <point x="2365" y="211"/>
      <point x="2300" y="111"/>
    </contour>
    <contour>
      <point x="2196" y="-17" type="curve" smooth="yes"/>
      <point x="2392" y="-17"/>
      <point x="2515" y="133"/>
      <point x="2515" y="371" type="curve" smooth="yes"/>
      <point x="2515" y="614"/>
      <point x="2392" y="765"/>
      <point x="2196" y="765" type="curve" smooth="yes"/>
      <point x="2001" y="765"/>
      <point x="1877" y="614"/>
      <point x="1877" y="371" type="curve" smooth="yes"/>
      <point x="1877" y="133"/>
      <point x="2001" y="-17"/>
    </contour>
    <component base="percent"/>
  </outline>
</glyph>
<glyph name="guilsinglleft" format="1">
  <advance width="910"/>
  <unicode hex="2039"/>
  <outline>
    <contour>
      <point x="776" y="95" type="line"/>
      <point x="776" y="298" type="line"/>
      <point x="364" y="550" type="line"/>
      <point x="776" y="799" type="line"/>
      <point x="776" y="1000" type="line"/>
      <point x="177" y="625" type="line"/>
      <point x="177" y="470" type="line"/>
    </contour>
  </outline>
</glyph>
<glyph name="fraction" format="1">
  <advance width="923"/>
  <unicode hex="2044"/>
  <outline>
    <contour>
      <point x="152" y="-17" type="line"/>
      <point x="923" y="1503" type="line"/>
      <point x="768" y="1503" type="line"/>
      <point x="0" y="-17" type="line"/>
    </contour>
  </outline>
</glyph>
<glyph name="uni2074" format="1">
  <advance width="993"/>
  <unicode hex="2074"/>
  <outline>
    <contour>
      <point x="612" y="451" type="line"/>
      <point x="768" y="467" type="line"/>
      <point x="768" y="703" type="line"/>
      <point x="908" y="703" type="line"/>
      <point x="908" y="828" type="line"/>
      <point x="768" y="828" type="line"/>
      <point x="768" y="1529" type="line"/>
      <point x="625" y="1563" type="line"/>
      <point x="103" y="819" type="line"/>
      <point x="126" y="703" type="line"/>
      <point x="612" y="703" type="line"/>
    </contour>
    <contour>
      <point x="276" y="827" type="line"/>
      <point x="612" y="1316" type="line"/>
      <point x="612" y="827" type="line"/>
    </contour>
  </outline>
</glyph>
<glyph name="estimated" format="1">
  <advance width="1112"/>
  <unicode hex="212E"/>
  <outline>
    <contour>
      <point x="599" y="118" type="curve" smooth="yes"/>
      <point x="723" y="118"/>
      <point x="879" y="157"/>
      <point x="965" y="227" type="curve"/>
      <point x="925" y="317" type="line"/>
      <point x="875" y="280"/>
      <point x="765" y="217"/>
      <point x="629" y="217" type="curve" smooth="yes"/>
      <point x="526" y="217"/>
      <point x="428" y="252"/>
      <point x="361" y="330" type="curve"/>
      <point x="361" y="681" type="line"/>
      <point x="997" y="681" type="line"/>
      <point x="1002" y="710"/>
      <point x="1005" y="740"/>
      <point x="1005" y="772" type="curve" smooth="yes"/>
      <point x="1005" y="1051"/>
      <point x="873" y="1252"/>
      <point x="590" y="1252" type="curve" smooth="yes"/>
      <point x="264" y="1252"/>
      <point x="108" y="988"/>
      <point x="108" y="679" type="curve" smooth="yes"/>
      <point x="108" y="373"/>
      <point x="271" y="118"/>
    </contour>
    <contour>
      <point x="361" y="767" type="line"/>
      <point x="361" y="1059" type="line"/>
      <point x="413" y="1115"/>
      <point x="488" y="1150"/>
      <point x="591" y="1150" type="curve" smooth="yes"/>
      <point x="687" y="1150"/>
      <point x="754" y="1115"/>
      <point x="799" y="1059" type="curve"/>
      <point x="799" y="767" type="line"/>
    </contour>
  </outline>
</glyph>
<glyph name="product" format="1">
  <advance width="1597"/>
  <unicode hex="220F"/>
  <outline>
    <contour>
      <point x="263" y="-146" type="line"/>
      <point x="486" y="-146" type="line"/>
      <point x="486" y="1320" type="line"/>
      <point x="1111" y="1320" type="line"/>
      <point x="1111" y="-146" type="line"/>
      <point x="1334" y="-146" type="line"/>
      <point x="1334" y="1320" type="line"/>
      <point x="1578" y="1320" type="line"/>
      <point x="1578" y="1485" type="line"/>
      <point x="18" y="1485" type="line"/>
      <point x="18" y="1320" type="line"/>
      <point x="263" y="1320" type="line"/>
    </contour>
  </outline>
</glyph>
<glyph name="minus" format="1">
  <advance width="897"/>
  <unicode hex="2212"/>
  <outline>
    <contour>
      <point x="127" y="472" type="line"/>
      <point x="766" y="472" type="line"/>
      <point x="766" y="624" type="line"/>
      <point x="127" y="624" type="line"/>
    </contour>
  </outline>
</glyph>
<glyph name="infinity" format="1">
  <advance width="1655"/>
  <unicode hex="221E"/>
  <outline>
    <contour>
      <point x="413" y="281" type="curve" smooth="yes"/>
      <point x="575" y="281"/>
      <point x="709" y="383"/>
      <point x="830" y="493" type="curve"/>
      <point x="951" y="383"/>
      <point x="1085" y="281"/>
      <point x="1246" y="281" type="curve" smooth="yes"/>
      <point x="1404" y="281"/>
      <point x="1549" y="360"/>
      <point x="1544" y="598" type="curve"/>
      <point x="1549" y="836"/>
      <point x="1404" y="914"/>
      <point x="1246" y="914" type="curve" smooth="yes"/>
      <point x="1085" y="914"/>
      <point x="951" y="813"/>
      <point x="830" y="703" type="curve"/>
      <point x="709" y="813"/>
      <point x="575" y="914"/>
      <point x="413" y="914" type="curve" smooth="yes"/>
      <point x="256" y="914"/>
      <point x="110" y="834"/>
      <point x="116" y="598" type="curve"/>
      <point x="110" y="363"/>
      <point x="256" y="281"/>
    </contour>
    <contour>
      <point x="419" y="425" type="curve" smooth="yes"/>
      <point x="330" y="425"/>
      <point x="264" y="465"/>
      <point x="269" y="598" type="curve" smooth="yes"/>
      <point x="264" y="735"/>
      <point x="335" y="770"/>
      <point x="419" y="770" type="curve" smooth="yes"/>
      <point x="522" y="770"/>
      <point x="623" y="692"/>
      <point x="725" y="598" type="curve"/>
      <point x="623" y="504"/>
      <point x="522" y="425"/>
    </contour>
    <contour>
      <point x="1240" y="425" type="curve" smooth="yes"/>
      <point x="1139" y="425"/>
      <point x="1039" y="504"/>
      <point x="936" y="598" type="curve"/>
      <point x="1039" y="692"/>
      <point x="1139" y="770"/>
      <point x="1240" y="770" type="curve" smooth="yes"/>
      <point x="1326" y="770"/>
      <point x="1394" y="737"/>
      <point x="1391" y="598" type="curve"/>
      <point x="1394" y="459"/>
      <point x="1326" y="425"/>
    </contour>
  </outline>
</glyph>
<glyph name="lozenge" format="1">
  <advance width="1353"/>
  <unicode hex="25CA"/>
  <outline>
    <contour>
      <point x="677" y="145" type="line"/>
      <point x="310" y="549" type="line"/>
      <point x="678" y="954" type="line"/>
      <point x="1044" y="551" type="line"/>
    </contour>
    <contour>
      <point x="677" y="-54" type="line"/>
      <point x="1245" y="551" type="line"/>
      <point x="678" y="1154" type="line"/>
      <point x="110" y="549" type="line"/>
    </contour>
  </outline>
</glyph>
<glyph name="uniFB01" format="1">
  <advance width="1238"/>
  <unicode hex="FB01"/>
  <outline>
    <contour>
      <point x="193" y="0" type="line"/>
      <point x="411" y="0" type="line"/>
      <point x="411" y="972" type="line"/>
      <point x="870" y="972" type="line"/>
      <point x="870" y="0" type="line"/>
      <point x="1083" y="0" type="line"/>
      <point x="1083" y="1096" type="line"/>
      <point x="412" y="1096" type="line"/>
      <point x="412" y="1099"/>
      <point x="412" y="1165"/>
      <point x="412" y="1167" type="curve" smooth="yes"/>
      <point x="414" y="1371"/>
      <point x="509" y="1391"/>
      <point x="572" y="1392" type="curve" smooth="yes"/>
      <point x="614" y="1393"/>
      <point x="673" y="1381"/>
      <point x="719" y="1365" type="curve"/>
      <point x="743" y="1515" type="line"/>
      <point x="675" y="1538"/>
      <point x="606" y="1551"/>
      <point x="539" y="1553" type="curve" smooth="yes"/>
      <point x="371" y="1556"/>
      <point x="196" y="1466"/>
      <point x="193" y="1176" type="curve" smooth="yes"/>
      <point x="193" y="1173"/>
      <point x="193" y="1100"/>
      <point x="193" y="1096" type="curve"/>
      <point x="7" y="1096" type="line"/>
      <point x="7" y="972" type="line"/>
      <point x="193" y="972" type="line"/>
    </contour>
    <contour>
      <point x="980" y="1265" type="curve" smooth="yes"/>
      <point x="1051" y="1265"/>
      <point x="1103" y="1322"/>
      <point x="1103" y="1392" type="curve" smooth="yes"/>
      <point x="1103" y="1462"/>
      <point x="1051" y="1521"/>
      <point x="980" y="1521" type="curve" smooth="yes"/>
      <point x="909" y="1521"/>
      <point x="854" y="1462"/>
      <point x="854" y="1392" type="curve" smooth="yes"/>
      <point x="854" y="1323"/>
      <point x="908" y="1265"/>
    </contour>
  </outline>
</glyph>
<glyph name="uniFB02" format="1">
  <advance width="1344"/>
  <unicode hex="FB02"/>
  <outline>
    <contour>
      <point x="229" y="0" type="line"/>
      <point x="447" y="0" type="line"/>
      <point x="447" y="964" type="line"/>
      <point x="757" y="964" type="line"/>
      <point x="757" y="1096" type="line"/>
      <point x="448" y="1096" type="line"/>
      <point x="448" y="1165" type="line"/>
      <point x="449" y="1347"/>
      <point x="564" y="1401"/>
      <point x="708" y="1401" type="curve" smooth="yes"/>
      <point x="780" y="1401"/>
      <point x="858" y="1387"/>
      <point x="933" y="1369" type="curve"/>
      <point x="933" y="0" type="line"/>
      <point x="1148" y="0" type="line"/>
      <point x="1148" y="1486" type="line"/>
      <point x="981" y="1529"/>
      <point x="821" y="1557"/>
      <point x="683" y="1557" type="curve" smooth="yes"/>
      <point x="417" y="1557"/>
      <point x="229" y="1452"/>
      <point x="229" y="1171" type="curve" smooth="yes"/>
      <point x="229" y="1096" type="line"/>
      <point x="43" y="1096" type="line"/>
      <point x="43" y="964" type="line"/>
      <point x="229" y="964" type="line"/>
    </contour>
  </outline>
</glyph>
<glyph name="uniFB03" format="1">
  <advance width="2176"/>
  <unicode hex="FB03"/>
  <outline>
    <contour>
      <point x="260" y="0" type="line"/>
      <point x="475" y="0" type="line"/>
      <point x="475" y="964" type="line"/>
      <point x="965" y="964" type="line"/>
      <point x="965" y="0" type="line"/>
      <point x="1180" y="0" type="line"/>
      <point x="1180" y="964" type="line"/>
      <point x="1699" y="964" type="line"/>
      <point x="1699" y="0" type="line"/>
      <point x="1913" y="0" type="line"/>
      <point x="1913" y="1096" type="line"/>
      <point x="1180" y="1096" type="line"/>
      <point x="1180" y="1173" type="line" smooth="yes"/>
      <point x="1180" y="1368"/>
      <point x="1274" y="1394"/>
      <point x="1346" y="1394" type="curve" smooth="yes"/>
      <point x="1386" y="1395"/>
      <point x="1447" y="1380"/>
      <point x="1494" y="1363" type="curve"/>
      <point x="1535" y="1502" type="line"/>
      <point x="1468" y="1533"/>
      <point x="1388" y="1553"/>
      <point x="1307" y="1554" type="curve" smooth="yes"/>
      <point x="1151" y="1558"/>
      <point x="965" y="1478"/>
      <point x="965" y="1170" type="curve" smooth="yes"/>
      <point x="965" y="1096" type="line"/>
      <point x="475" y="1096" type="line"/>
      <point x="475" y="1173" type="line" smooth="yes"/>
      <point x="475" y="1368"/>
      <point x="569" y="1394"/>
      <point x="641" y="1394" type="curve" smooth="yes"/>
      <point x="681" y="1395"/>
      <point x="743" y="1380"/>
      <point x="790" y="1363" type="curve"/>
      <point x="830" y="1502" type="line"/>
      <point x="763" y="1533"/>
      <point x="683" y="1553"/>
      <point x="602" y="1554" type="curve" smooth="yes"/>
      <point x="447" y="1558"/>
      <point x="260" y="1478"/>
      <point x="260" y="1170" type="curve" smooth="yes"/>
      <point x="260" y="1096" type="line"/>
      <point x="71" y="1096" type="line"/>
      <point x="71" y="964" type="line"/>
      <point x="260" y="964" type="line"/>
    </contour>
    <contour>
      <point x="1810" y="1269" type="curve" smooth="yes"/>
      <point x="1882" y="1269"/>
      <point x="1934" y="1326"/>
      <point x="1934" y="1394" type="curve" smooth="yes"/>
      <point x="1934" y="1464"/>
      <point x="1882" y="1521"/>
      <point x="1810" y="1521" type="curve" smooth="yes"/>
      <point x="1739" y="1521"/>
      <point x="1685" y="1464"/>
      <point x="1685" y="1394" type="curve" smooth="yes"/>
      <point x="1685" y="1327"/>
      <point x="1738" y="1269"/>
    </contour>
  </outline>
</glyph>
<glyph name="uniFB04" format="1">
  <advance width="2162"/>
  <unicode hex="FB04"/>
  <outline>
    <contour>
      <point x="260" y="0" type="line"/>
      <point x="475" y="0" type="line"/>
      <point x="475" y="964" type="line"/>
      <point x="986" y="964" type="line"/>
      <point x="986" y="0" type="line"/>
      <point x="1204" y="0" type="line"/>
      <point x="1204" y="964" type="line"/>
      <point x="1514" y="964" type="line"/>
      <point x="1514" y="1096" type="line"/>
      <point x="1205" y="1096" type="line"/>
      <point x="1205" y="1165" type="line"/>
      <point x="1206" y="1347"/>
      <point x="1321" y="1401"/>
      <point x="1465" y="1401" type="curve" smooth="yes"/>
      <point x="1537" y="1401"/>
      <point x="1615" y="1387"/>
      <point x="1690" y="1369" type="curve"/>
      <point x="1690" y="0" type="line"/>
      <point x="1905" y="0" type="line"/>
      <point x="1905" y="1486" type="line"/>
      <point x="1738" y="1529"/>
      <point x="1578" y="1557"/>
      <point x="1440" y="1557" type="curve" smooth="yes"/>
      <point x="1174" y="1557"/>
      <point x="986" y="1452"/>
      <point x="986" y="1171" type="curve" smooth="yes"/>
      <point x="986" y="1096" type="line"/>
      <point x="475" y="1096" type="line"/>
      <point x="475" y="1173" type="line" smooth="yes"/>
      <point x="475" y="1368"/>
      <point x="569" y="1394"/>
      <point x="641" y="1394" type="curve" smooth="yes"/>
      <point x="681" y="1395"/>
      <point x="743" y="1380"/>
      <point x="790" y="1363" type="curve"/>
      <point x="830" y="1502" type="line"/>
      <point x="763" y="1533"/>
      <point x="683" y="1553"/>
      <point x="602" y="1554" type="curve" smooth="yes"/>
      <point x="447" y="1558"/>
      <point x="260" y="1478"/>
      <point x="260" y="1170" type="curve" smooth="yes"/>
      <point x="260" y="1096" type="line"/>
      <point x="71" y="1096" type="line"/>
      <point x="71" y="964" type="line"/>
      <point x="260" y="964" type="line"/>
    </contour>
  </outline>
</glyph>
<glyph name="fj" format="1">
  <advance width="1280"/>
  <outline>
    <contour>
      <point x="437" y="1096" type="line"/>
      <point x="437" y="1303"/>
      <point x="457" y="1406"/>
      <point x="585" y="1406" type="curve" smooth="yes"/>
      <point x="629" y="1406"/>
      <point x="680" y="1390"/>
      <point x="741" y="1352" type="curve"/>
      <point x="777" y="1499" type="line"/>
      <point x="687" y="1543"/>
      <point x="610" y="1564"/>
      <point x="541" y="1564" type="curve" smooth="yes"/>
      <point x="311" y="1564"/>
      <point x="219" y="1402"/>
      <point x="219" y="1096" type="curve"/>
      <point x="36" y="1096" type="line"/>
      <point x="36" y="985" type="line"/>
      <point x="219" y="985" type="line"/>
      <point x="219" y="0" type="line"/>
      <point x="437" y="0" type="line"/>
      <point x="437" y="985" type="line"/>
      <point x="886" y="985" type="line"/>
      <point x="886" y="176" type="line" smooth="yes"/>
      <point x="886" y="-5"/>
      <point x="857" y="-113"/>
      <point x="703" y="-206" type="curve"/>
      <point x="764" y="-345" type="line"/>
      <point x="990" y="-291"/>
      <point x="1104" y="-74"/>
      <point x="1104" y="156" type="curve" smooth="yes"/>
      <point x="1104" y="1096" type="line"/>
    </contour>
    <contour>
      <point x="995" y="1265" type="curve" smooth="yes"/>
      <point x="1068" y="1265"/>
      <point x="1116" y="1323"/>
      <point x="1116" y="1392" type="curve" smooth="yes"/>
      <point x="1116" y="1462"/>
      <point x="1068" y="1521"/>
      <point x="995" y="1521" type="curve" smooth="yes"/>
      <point x="924" y="1521"/>
      <point x="870" y="1463"/>
      <point x="870" y="1392" type="curve" smooth="yes"/>
      <point x="870" y="1324"/>
      <point x="923" y="1265"/>
    </contour>
  </outline>
</glyph>
